<svg width="256" height="256" viewBox="0 0 256 256" fill="none" xmlns="http://www.w3.org/2000/svg">
<path d="M0 48C0 21.4903 21.4903 0 48 0H208C234.51 0 256 21.4903 256 48V208C256 234.51 234.51 256 208 256H48C21.4903 256 0 234.51 0 208V48Z" fill="url(#paint0_linear_756_542)"/>
<path d="M0 48C0 21.4903 21.4903 0 48 0H208C234.51 0 256 21.4903 256 48V208C256 234.51 234.51 256 208 256H48C21.4903 256 0 234.51 0 208V48Z" fill="white" fill-opacity="0.2"/>
<path d="M0 48C0 21.4903 21.4903 0 48 0H208C234.51 0 256 21.4903 256 48V208C256 234.51 234.51 256 208 256H48C21.4903 256 0 234.51 0 208V48Z" fill="url(#paint1_radial_756_542)" fill-opacity="0.1" style="mix-blend-mode:plus-lighter"/>
<path d="M208 252V256H48V252H208ZM252 208V48C252 23.6995 232.301 4 208 4H48C23.6995 4 4 23.6995 4 48V208C4 232.301 23.6995 252 48 252V256L47.3799 255.996C21.156 255.664 0 234.303 0 208V48C0 21.4903 21.4903 0 48 0H208C234.51 0 256 21.4903 256 48V208C256 234.51 234.51 256 208 256V252C232.301 252 252 232.301 252 208Z" fill="#FFC9C9" fill-opacity="0.75" style="mix-blend-mode:hard-light"/>
<path d="M208 252V256H48V252H208ZM252 208V48C252 23.6995 232.301 4 208 4H48C23.6995 4 4 23.6995 4 48V208C4 232.301 23.6995 252 48 252V256L47.3799 255.996C21.156 255.664 0 234.303 0 208V48C0 21.4903 21.4903 0 48 0H208C234.51 0 256 21.4903 256 48V208C256 234.51 234.51 256 208 256V252C232.301 252 252 232.301 252 208Z" fill="white" fill-opacity="0.5"/>
<g filter="url(#filter0_d_756_542)">
<path d="M131.663 48C132.089 48.0006 132.349 48.7635 132.589 50.7368C132.776 52.2418 134.013 60.8626 135.344 69.8888C136.671 78.9198 138.12 87.5829 138.558 89.1438C139 90.7044 139.938 93.2584 140.64 94.819C141.202 96.0605 142.173 97.8737 143.024 99.2919C143.451 99.1679 143.85 99.0477 144.197 98.934C145.738 98.4254 148.211 97.4084 149.692 96.679C151.173 95.9491 157.424 92.1277 163.587 88.1894C169.743 84.2552 174.831 81.0347 174.896 81.0248C174.957 81.0224 175.057 81.2485 175.117 81.5321C175.182 81.8165 171.907 87.2417 167.842 93.5936C163.777 99.945 159.928 106.299 159.29 107.712C158.659 109.104 157.711 111.692 157.163 113.51C157.27 113.577 157.373 113.645 157.475 113.708C159.261 114.811 162.183 116.278 163.969 116.967C165.76 117.656 173.315 119.561 180.81 121.211C188.284 122.859 194.442 124.205 194.508 124.207C194.54 124.207 194.566 124.279 194.585 124.391C205.147 125.936 208 126.486 208 126.92C208 127.346 207.237 127.605 205.263 127.845C203.759 128.032 195.137 129.269 186.11 130.6C177.079 131.927 168.417 133.376 166.856 133.814C165.296 134.257 162.742 135.195 161.181 135.897C160.823 136.059 160.417 136.256 159.986 136.474C160.475 138.516 161.491 141.576 162.258 143.308C163.037 145.061 167.033 151.752 171.167 158.219C175.286 164.669 178.689 169.973 178.735 170.022C178.774 170.062 178.645 170.254 178.447 170.452C178.21 170.689 174.351 168.407 166.994 163.682C160.892 159.763 154.778 155.995 153.412 155.312C152.043 154.631 149.68 153.63 148.165 153.096C146.785 152.613 144.57 151.988 143 151.634C142.743 152.02 142.503 152.39 142.292 152.731C141.19 154.517 139.722 157.439 139.033 159.225C138.773 159.901 138.34 161.398 137.812 163.404C137.311 166.484 136.03 176.049 134.743 186.428C133.274 198.239 132.037 207.941 131.991 207.989C131.942 208.033 131.711 207.944 131.472 207.786C131.229 207.63 129.905 198.198 128.505 186.63C127.676 179.799 126.872 173.7 126.221 169.182C125.332 165.351 124.588 162.351 124.29 161.457C123.804 160.008 122.84 157.63 122.146 156.181C121.591 155.026 120.656 153.341 119.856 152.026C118.592 152.359 117.239 152.762 116.285 153.096C114.77 153.63 112.407 154.631 111.038 155.312C109.672 155.995 103.557 159.763 97.4548 163.682C90.0986 168.407 86.2407 170.689 86.0026 170.452C85.805 170.254 85.6754 170.062 85.7154 170.022C85.761 169.973 89.164 164.669 93.283 158.219C97.4168 151.752 101.413 145.061 102.192 143.308C102.858 141.805 103.707 139.304 104.241 137.334C104.014 137.207 103.806 137.094 103.621 137C102.284 136.327 100.002 135.329 98.5551 134.785C97.1082 134.241 94.8258 133.543 93.488 133.231C92.1502 132.922 81.3872 131.464 69.5713 129.999C57.7772 128.533 48.0873 127.297 48.0115 127.248C47.9669 127.2 48.0561 126.968 48.2142 126.728C48.3783 126.484 57.8065 125.162 69.3686 123.762C70.5899 123.614 71.7881 123.464 72.9578 123.319C75.2655 122.802 78.2898 122.13 81.5818 121.405C88.7244 119.833 95.8471 118.114 97.4097 117.583C98.9722 117.052 101.439 116.022 102.888 115.292C104.056 114.701 105.766 113.712 107.088 112.874C106.53 111.128 105.72 108.949 105.16 107.712C104.522 106.3 100.673 99.9452 96.6082 93.5936C92.5439 87.2424 89.2678 81.8178 89.3324 81.5321C89.3924 81.2485 89.4934 81.0224 89.5536 81.0248C89.6297 81.0416 94.714 84.2594 100.863 88.1894C107.026 92.1278 113.277 95.9493 114.758 96.679C116.238 97.4083 118.711 98.4254 120.252 98.934C120.296 98.9487 120.343 98.962 120.389 98.9769C120.73 98.4177 121.037 97.8925 121.277 97.4527C122.064 96.0056 123.25 93.2702 123.912 91.3733C124.573 89.4803 125.392 86.2858 125.733 84.2794C126.074 82.2727 127.414 73.2899 128.712 64.3155C130.583 51.3647 131.193 48 131.663 48Z" fill="white"/>
</g>
<defs>
<filter id="filter0_d_756_542" x="40" y="40" width="176" height="176" filterUnits="userSpaceOnUse" color-interpolation-filters="sRGB">
<feFlood flood-opacity="0" result="BackgroundImageFix"/>
<feColorMatrix in="SourceAlpha" type="matrix" values="0 0 0 0 0 0 0 0 0 0 0 0 0 0 0 0 0 0 127 0" result="hardAlpha"/>
<feOffset/>
<feGaussianBlur stdDeviation="4"/>
<feComposite in2="hardAlpha" operator="out"/>
<feColorMatrix type="matrix" values="0 0 0 0 0 0 0 0 0 0 0 0 0 0 0 0 0 0 0.15 0"/>
<feBlend mode="normal" in2="BackgroundImageFix" result="effect1_dropShadow_756_542"/>
<feBlend mode="normal" in="SourceGraphic" in2="effect1_dropShadow_756_542" result="shape"/>
</filter>
<linearGradient id="paint0_linear_756_542" x1="0" y1="0" x2="256" y2="256" gradientUnits="userSpaceOnUse">
<stop stop-color="#FA7777"/>
<stop offset="1" stop-color="#7C3FFF"/>
</linearGradient>
<radialGradient id="paint1_radial_756_542" cx="0" cy="0" r="1" gradientUnits="userSpaceOnUse" gradientTransform="translate(128 -1.73537e-06) rotate(-90) scale(152.5 358.586)">
<stop stop-color="white"/>
<stop offset="1" stop-color="white" stop-opacity="0"/>
</radialGradient>
</defs>
</svg>
