<svg width="256" height="256" viewBox="0 0 256 256" fill="none" xmlns="http://www.w3.org/2000/svg">
<path d="M0 48C0 21.4903 21.4903 0 48 0H208C234.51 0 256 21.4903 256 48V208C256 234.51 234.51 256 208 256H48C21.4903 256 0 234.51 0 208V48Z" fill="url(#paint0_linear_756_547)"/>
<path d="M0 48C0 21.4903 21.4903 0 48 0H208C234.51 0 256 21.4903 256 48V208C256 234.51 234.51 256 208 256H48C21.4903 256 0 234.51 0 208V48Z" fill="white" fill-opacity="0.2"/>
<path d="M0 48C0 21.4903 21.4903 0 48 0H208C234.51 0 256 21.4903 256 48V208C256 234.51 234.51 256 208 256H48C21.4903 256 0 234.51 0 208V48Z" fill="url(#paint1_radial_756_547)" fill-opacity="0.1" style="mix-blend-mode:plus-lighter"/>
<path d="M208 252V256H48V252H208ZM252 208V48C252 23.6995 232.301 4 208 4H48C23.6995 4 4 23.6995 4 48V208C4 232.301 23.6995 252 48 252V256L47.3799 255.996C21.156 255.664 0 234.303 0 208V48C0 21.4903 21.4903 0 48 0H208C234.51 0 256 21.4903 256 48V208C256 234.51 234.51 256 208 256V252C232.301 252 252 232.301 252 208Z" fill="#77FAF6" fill-opacity="0.75" style="mix-blend-mode:hard-light"/>
<path d="M208 252V256H48V252H208ZM252 208V48C252 23.6995 232.301 4 208 4H48C23.6995 4 4 23.6995 4 48V208C4 232.301 23.6995 252 48 252V256L47.3799 255.996C21.156 255.664 0 234.303 0 208V48C0 21.4903 21.4903 0 48 0H208C234.51 0 256 21.4903 256 48V208C256 234.51 234.51 256 208 256V252C232.301 252 252 232.301 252 208Z" fill="white" fill-opacity="0.5"/>
<g filter="url(#filter0_d_756_547)">
<path fill-rule="evenodd" clip-rule="evenodd" d="M130.381 64.0183C130.477 64.0044 130.651 63.9863 130.862 64.016C131.034 64.0402 131.371 64.1167 131.684 64.3865L131.816 64.5145L131.96 64.6715L132.058 64.8613C132.101 64.9454 132.127 65.0158 132.134 65.0351C132.145 65.0649 132.153 65.0898 132.158 65.1045C132.167 65.1342 132.175 65.1601 132.179 65.1753C132.188 65.2076 132.197 65.2415 132.204 65.2706C132.22 65.3313 132.239 65.411 132.262 65.5038C132.306 65.6916 132.368 65.9587 132.445 66.2935C132.599 66.9643 132.815 67.9217 133.079 69.0938C133.605 71.4386 134.319 74.6515 135.095 78.173C136.66 85.2834 138.342 92.2338 138.833 93.6807L139.044 94.2744C139.448 95.3798 140.023 96.771 140.539 97.9017C140.679 97.8632 140.812 97.8291 140.935 97.7927C142.404 97.3591 145.07 96.3076 146.801 95.4718L146.802 95.4711C148.51 94.6474 151.246 93.0298 152.82 91.9131C154.445 90.7604 161.653 85.4219 168.854 80.0419L172.401 77.3979C175.617 75.0096 177.867 73.3695 179.413 72.2973C180.435 71.5889 181.197 71.094 181.746 70.795C182.008 70.6519 182.307 70.5062 182.605 70.4215C182.752 70.3796 182.988 70.3266 183.267 70.3407C183.561 70.3557 184.008 70.4546 184.384 70.8301L184.387 70.8331C184.846 71.2956 184.971 71.8775 184.934 72.3613C184.902 72.7843 184.749 73.1598 184.611 73.4391C184.331 74.0063 183.851 74.6826 183.24 75.4619L183.239 75.4612C182.322 76.6392 177.171 83.5174 171.783 90.7698C169.091 94.3891 166.485 97.9641 164.456 100.806C162.396 103.692 161 105.728 160.659 106.336C159.916 107.667 158.817 110.038 158.242 111.555C157.902 112.456 157.492 113.757 157.145 115.008C158.52 115.695 160.857 116.67 162.319 117.167C163.767 117.659 170.718 119.34 177.827 120.906C181.361 121.684 184.585 122.4 186.932 122.927C188.105 123.19 189.061 123.407 189.728 123.56C190.061 123.637 190.325 123.698 190.51 123.742C190.601 123.764 190.68 123.784 190.739 123.799C190.768 123.806 190.803 123.815 190.837 123.825C190.852 123.829 190.884 123.838 190.921 123.851C190.938 123.857 190.975 123.87 191.02 123.888C191.023 123.889 191.114 123.924 191.231 123.994L191.355 124.076L191.445 124.143L191.524 124.22C191.878 124.569 191.963 124.972 191.987 125.162C192.013 125.368 191.994 125.537 191.98 125.632C191.95 125.826 191.893 125.987 191.855 126.085C191.771 126.296 191.656 126.507 191.535 126.694L191.534 126.693C191.327 127.012 191.055 127.172 191.016 127.196C190.92 127.255 190.83 127.299 190.773 127.325C190.654 127.379 190.525 127.426 190.41 127.466C190.172 127.548 189.86 127.643 189.497 127.746C188.765 127.954 187.741 128.22 186.508 128.525C184.037 129.137 180.677 129.916 177.021 130.719C173.386 131.517 169.789 132.353 166.925 133.056C164.009 133.772 161.972 134.322 161.363 134.552C160.45 134.896 159.023 135.531 157.686 136.181C157.565 136.553 157.437 136.922 157.302 137.288C157.812 139.033 158.498 141.004 159.034 142.215C159.374 142.98 160.501 144.982 162.113 147.681C163.701 150.34 165.705 153.584 167.744 156.773C169.782 159.965 171.644 162.874 173.002 164.991C173.68 166.049 174.232 166.91 174.618 167.508C174.81 167.807 174.96 168.04 175.063 168.198C175.115 168.278 175.154 168.336 175.179 168.374C175.185 168.384 175.19 168.391 175.194 168.396C175.354 168.619 175.429 168.848 175.464 169.045C178.408 173.002 180.3 175.597 181.43 177.255C182.011 178.107 182.428 178.763 182.681 179.25C182.801 179.482 182.932 179.764 183.005 180.056C183.044 180.216 183.254 181.076 182.575 181.755L182.573 181.756C182.111 182.217 181.529 182.342 181.044 182.305C180.62 182.273 180.245 182.12 179.966 181.982C179.399 181.702 178.723 181.221 177.944 180.611C176.766 179.693 169.887 174.541 162.634 169.152L162.633 169.152C159.015 166.46 155.44 163.855 152.598 161.826C149.716 159.769 147.682 158.374 147.071 158.03C145.743 157.288 143.378 156.194 141.861 155.617C140.943 157.257 139.937 159.32 139.422 160.655L139.422 160.656C139.122 161.436 138.502 163.649 137.734 166.698C136.977 169.702 136.1 173.414 135.287 177.111C134.472 180.806 133.732 184.176 133.195 186.632C132.927 187.86 132.709 188.859 132.559 189.555C132.483 189.903 132.425 190.175 132.386 190.361C132.366 190.454 132.352 190.523 132.342 190.569C132.338 190.592 132.335 190.604 132.334 190.61C132.334 190.607 132.335 190.603 132.335 190.599L132.3 190.765C132.202 191.115 132.002 191.356 131.867 191.486C131.69 191.656 131.511 191.749 131.419 191.792C131.227 191.882 131.048 191.922 130.951 191.941C130.788 191.974 130.617 191.991 130.454 191.997L130.295 192C129.857 192 129.535 191.825 129.362 191.703C129.187 191.58 129.07 191.446 129.004 191.364C128.872 191.199 128.784 191.031 128.732 190.925C128.62 190.696 128.517 190.417 128.421 190.13C128.223 189.541 127.985 188.695 127.709 187.62C127.154 185.458 126.412 182.245 125.49 178.011L124.912 175.386C123.565 169.336 122.273 163.969 121.883 162.8C121.422 161.427 120.495 159.135 119.836 157.758L119.502 157.089C119.208 156.518 118.853 155.87 118.487 155.226C117.885 155.006 117.288 154.766 116.697 154.507C114.837 155.021 112.543 155.805 111.188 156.405C110.631 156.653 109.381 157.337 107.629 158.358C105.41 159.96 99.388 164.548 92.4909 169.899L89.4627 172.254C84.8257 175.865 80.5957 179.15 77.5107 181.537C75.9685 182.731 74.7109 183.701 73.8316 184.375C73.3926 184.712 73.045 184.976 72.8026 185.159C72.6822 185.25 72.5825 185.325 72.5092 185.379C72.4737 185.405 72.4357 185.431 72.4017 185.455C72.3859 185.466 72.3595 185.485 72.3285 185.505C72.3137 185.514 72.2846 185.531 72.2485 185.552C72.2394 185.557 72.1237 185.625 71.9665 185.677L71.689 185.768L71.3971 185.752C70.958 185.729 70.6506 185.534 70.5015 185.419C70.3436 185.298 70.238 185.171 70.1784 185.091C70.0583 184.932 69.9817 184.775 69.9375 184.675C69.8426 184.46 69.7734 184.223 69.7279 184.002C69.6589 183.664 69.7205 183.392 69.7386 183.315C69.7654 183.2 69.7999 183.108 69.8209 183.056C69.8637 182.95 69.9123 182.859 69.9444 182.8C70.0128 182.676 70.0989 182.537 70.1875 182.401C70.3696 182.122 70.6307 181.747 70.952 181.298C71.5983 180.395 72.5341 179.131 73.6875 177.601C75.9968 174.539 79.2021 170.378 82.7653 165.834C86.9418 160.504 90.6257 155.701 93.3209 152.099C95.3818 148.791 96.8989 146.268 97.2737 145.519C97.918 144.223 98.8811 141.947 99.3895 140.507C99.6866 139.659 100.044 138.444 100.355 137.275C99.5821 136.845 98.8304 136.447 98.2417 136.164C96.8634 135.505 94.5692 134.576 93.1967 134.115C91.8513 133.668 85.0374 132.046 77.9878 130.509C73.7551 129.587 70.543 128.846 68.3819 128.291C67.3068 128.015 66.4611 127.777 65.8712 127.58C65.5849 127.484 65.306 127.381 65.0777 127.269C64.9714 127.217 64.8036 127.128 64.6395 126.998C64.5571 126.932 64.4246 126.816 64.3018 126.643C64.1806 126.473 64.0038 126.154 64 125.719V125.705C64 125.499 64.0157 125.267 64.0587 125.049C64.0777 124.953 64.1183 124.772 64.2096 124.578C64.2536 124.484 64.3483 124.302 64.5244 124.122C64.6783 123.965 64.9793 123.73 65.4177 123.662C65.407 123.664 65.3976 123.665 65.3902 123.666C65.3958 123.665 65.4089 123.663 65.4322 123.658C65.4781 123.648 65.5481 123.633 65.6418 123.614C65.8281 123.574 66.0997 123.516 66.4482 123.441C67.1451 123.29 68.1441 123.072 69.372 122.804C71.8274 122.268 75.1957 121.529 78.8887 120.714L78.8895 120.713C82.5867 119.9 86.298 119.023 89.3019 118.266C92.3509 117.497 94.564 116.878 95.3438 116.578C96.4779 116.14 98.149 115.341 99.6441 114.54C99.168 113.187 98.4347 111.335 97.904 110.165C97.297 108.828 96.2187 106.801 95.5397 105.707C95.2203 105.199 93.4771 102.855 90.8293 99.3788C88.8637 96.7985 86.4386 93.6451 83.8217 90.2698L81.1502 86.8331C77.5383 82.1955 74.2529 77.9647 71.8659 74.8796C70.6726 73.3373 69.7024 72.0797 69.0282 71.2005C68.6917 70.7617 68.4267 70.4145 68.2439 70.1723C68.1532 70.052 68.0788 69.9521 68.0252 69.8788C67.9993 69.8435 67.9718 69.8062 67.9482 69.7721C67.9373 69.7565 67.9192 69.7294 67.8994 69.6982C67.8899 69.6833 67.8713 69.6535 67.8506 69.6166C67.8455 69.6076 67.7753 69.4871 67.7233 69.324L67.6342 69.0435L67.6524 68.75C67.6804 68.3145 67.8766 68.0111 67.9909 67.8644C68.1125 67.7083 68.2389 67.604 68.3178 67.545C68.4768 67.4262 68.6334 67.3511 68.7332 67.3072C68.9474 67.2131 69.1825 67.1443 69.4032 67.0991L69.42 67.0961L69.436 67.093C69.7649 67.0329 70.0272 67.0943 70.1037 67.1128C70.215 67.1398 70.3033 67.1743 70.3544 67.1952C70.4588 67.2378 70.5498 67.2849 70.6082 67.3171C70.7324 67.3856 70.8707 67.4721 71.0069 67.561C71.2866 67.7436 71.6612 68.0046 72.1105 68.3263C73.0144 68.9732 74.2784 69.9091 75.8079 71.0625C78.8697 73.3713 83.0271 76.5748 87.5686 80.1357C88.5047 80.8692 89.4279 81.5862 90.3316 82.2897C92.3028 83.5395 94.8665 85.1719 97.6494 86.9505C103.784 90.8711 109.888 94.5965 111.258 95.2721C112.662 95.9635 115.045 96.9421 116.499 97.4223C117.182 97.6457 118.097 97.9049 119.044 98.1517C119.377 98.0374 119.712 97.9293 120.048 97.827C120.616 96.6358 121.147 95.4381 121.448 94.638V94.6365C121.678 94.0272 122.229 91.9916 122.944 89.0755C123.647 86.2119 124.483 82.6144 125.281 78.9787C126.084 75.3234 126.864 71.9633 127.475 69.4924C127.78 68.2594 128.046 67.2353 128.254 66.5031C128.357 66.1406 128.451 65.8277 128.534 65.59C128.573 65.4751 128.621 65.3456 128.675 65.2264C128.701 65.1691 128.743 65.0801 128.803 64.984C128.827 64.9454 128.987 64.6728 129.306 64.465C129.308 64.4633 129.311 64.4613 129.314 64.4596C129.316 64.4586 129.317 64.4569 129.319 64.4558C129.504 64.3361 129.713 64.2239 129.922 64.1426C130.02 64.1045 130.184 64.0469 130.381 64.0183ZM177.029 177.956C177.956 178.655 178.61 179.151 178.906 179.382L178.205 178.845C177.889 178.604 177.493 178.305 177.029 177.956ZM175.177 168.374C175.175 168.372 175.174 168.369 175.172 168.367C175.166 168.359 175.157 168.346 175.144 168.331C175.143 168.329 175.14 168.326 175.137 168.323C175.151 168.34 175.164 168.357 175.177 168.374ZM124.257 154.127C124.281 154.131 124.306 154.134 124.33 154.138C124.288 154.131 124.246 154.124 124.204 154.117C124.222 154.12 124.239 154.124 124.257 154.127ZM133.502 154.131C133.513 154.129 133.525 154.128 133.536 154.127C133.541 154.126 133.546 154.124 133.551 154.123C133.535 154.126 133.519 154.128 133.502 154.131ZM134.826 153.877C134.832 153.875 134.839 153.874 134.846 153.873C134.859 153.87 134.871 153.866 134.884 153.864C134.865 153.868 134.845 153.872 134.826 153.877ZM147.399 108.285C137.181 98.0663 120.612 98.0663 110.393 108.285C100.175 118.504 100.175 135.072 110.393 145.29C120.612 155.509 137.181 155.509 147.399 145.29C157.618 135.072 157.618 118.504 147.399 108.285ZM111.396 148.297C111.425 148.321 111.454 148.344 111.483 148.367C111.436 148.329 111.39 148.291 111.343 148.253C111.361 148.268 111.378 148.283 111.396 148.297ZM147.434 147.407C147.102 147.706 146.764 147.996 146.422 148.277C146.595 148.135 146.767 147.992 146.938 147.845C147.105 147.702 147.269 147.555 147.434 147.407ZM110.324 147.377C110.335 147.387 110.347 147.397 110.358 147.407C110.327 147.379 110.296 147.351 110.265 147.322C110.284 147.341 110.304 147.359 110.324 147.377ZM147.434 147.407C147.445 147.397 147.457 147.388 147.469 147.377C147.487 147.361 147.505 147.344 147.523 147.327C147.493 147.354 147.463 147.38 147.434 147.407ZM158.736 144.989C158.894 145.268 159.065 145.566 159.246 145.882C158.908 145.294 158.609 144.765 158.358 144.308L158.736 144.989ZM97.9124 134.298C97.842 134.267 97.771 134.235 97.699 134.204C97.4763 134.107 97.2464 134.009 97.013 133.911C97.3219 134.04 97.6243 134.171 97.9124 134.298ZM173.97 129.799C170.385 130.608 167.011 131.412 164.543 132.042C165.777 131.727 167.238 131.37 168.838 130.989C170.438 130.608 172.177 130.203 173.97 129.799ZM101.296 129.445C101.299 129.48 101.303 129.515 101.306 129.55C101.297 129.451 101.288 129.352 101.279 129.253C101.285 129.317 101.29 129.381 101.296 129.445ZM101.176 127.453C101.18 127.615 101.185 127.776 101.192 127.938C101.185 127.759 101.179 127.579 101.175 127.399C101.176 127.417 101.176 127.435 101.176 127.453ZM183.039 123.658C182.857 123.617 182.672 123.576 182.486 123.534L177.491 122.43C179.471 122.866 181.354 123.283 183.039 123.658ZM146.986 105.773C146.97 105.759 146.954 105.744 146.938 105.73C146.908 105.705 146.878 105.681 146.848 105.656C146.894 105.695 146.941 105.733 146.986 105.773ZM146.464 105.333C146.441 105.315 146.419 105.296 146.397 105.278L146.362 105.25C146.396 105.278 146.43 105.305 146.464 105.333ZM130.265 99.0938C130.252 99.0932 130.239 99.0929 130.226 99.0923C130.207 99.0913 130.187 99.0909 130.167 99.09C130.2 99.0914 130.232 99.0922 130.265 99.0938ZM130.096 65.8712C129.982 66.1231 129.775 66.8337 129.496 67.8918C129.776 66.8325 129.983 66.1216 130.097 65.8705L130.096 65.8712Z" fill="white"/>
</g>
<defs>
<filter id="filter0_d_756_547" x="40" y="40" width="176" height="176" filterUnits="userSpaceOnUse" color-interpolation-filters="sRGB">
<feFlood flood-opacity="0" result="BackgroundImageFix"/>
<feColorMatrix in="SourceAlpha" type="matrix" values="0 0 0 0 0 0 0 0 0 0 0 0 0 0 0 0 0 0 127 0" result="hardAlpha"/>
<feOffset/>
<feGaussianBlur stdDeviation="4"/>
<feComposite in2="hardAlpha" operator="out"/>
<feColorMatrix type="matrix" values="0 0 0 0 0 0 0 0 0 0 0 0 0 0 0 0 0 0 0.15 0"/>
<feBlend mode="normal" in2="BackgroundImageFix" result="effect1_dropShadow_756_547"/>
<feBlend mode="normal" in="SourceGraphic" in2="effect1_dropShadow_756_547" result="shape"/>
</filter>
<linearGradient id="paint0_linear_756_547" x1="0" y1="0" x2="256" y2="256" gradientUnits="userSpaceOnUse">
<stop stop-color="#FA7777"/>
<stop offset="1" stop-color="#7C3FFF"/>
</linearGradient>
<radialGradient id="paint1_radial_756_547" cx="0" cy="0" r="1" gradientUnits="userSpaceOnUse" gradientTransform="translate(128 -1.73537e-06) rotate(-90) scale(152.5 358.586)">
<stop stop-color="white"/>
<stop offset="1" stop-color="white" stop-opacity="0"/>
</radialGradient>
</defs>
</svg>
