<svg width="256" height="256" viewBox="0 0 256 256" fill="none" xmlns="http://www.w3.org/2000/svg">
<path d="M0 48C0 21.4903 21.4903 0 48 0H208C234.51 0 256 21.4903 256 48V208C256 234.51 234.51 256 208 256H48C21.4903 256 0 234.51 0 208V48Z" fill="url(#paint0_linear_756_642)"/>
<path d="M0 48C0 21.4903 21.4903 0 48 0H208C234.51 0 256 21.4903 256 48V208C256 234.51 234.51 256 208 256H48C21.4903 256 0 234.51 0 208V48Z" fill="white" fill-opacity="0.2"/>
<path d="M0 48C0 21.4903 21.4903 0 48 0H208C234.51 0 256 21.4903 256 48V208C256 234.51 234.51 256 208 256H48C21.4903 256 0 234.51 0 208V48Z" fill="url(#paint1_radial_756_642)" fill-opacity="0.1" style="mix-blend-mode:plus-lighter"/>
<path d="M208 252V256H48V252H208ZM252 208V48C252 23.6995 232.301 4 208 4H48C23.6995 4 4 23.6995 4 48V208C4 232.301 23.6995 252 48 252V256L47.3799 255.996C21.156 255.664 0 234.303 0 208V48C0 21.4903 21.4903 0 48 0H208C234.51 0 256 21.4903 256 48V208C256 234.51 234.51 256 208 256V252C232.301 252 252 232.301 252 208Z" fill="#C9FFCA" fill-opacity="0.75" style="mix-blend-mode:hard-light"/>
<path d="M208 252V256H48V252H208ZM252 208V48C252 23.6995 232.301 4 208 4H48C23.6995 4 4 23.6995 4 48V208C4 232.301 23.6995 252 48 252V256L47.3799 255.996C21.156 255.664 0 234.303 0 208V48C0 21.4903 21.4903 0 48 0H208C234.51 0 256 21.4903 256 48V208C256 234.51 234.51 256 208 256V252C232.301 252 252 232.301 252 208Z" fill="white" fill-opacity="0.5"/>
<g filter="url(#filter0_d_756_642)">
<path d="M177.753 146.205C177.621 146.862 177.326 147.5 176.868 148.069L133.733 201.656C131.638 204.259 127.243 204.259 125.148 201.656L96.7529 166.379C97.5887 166.808 98.4615 167.223 99.369 167.61C107.164 170.939 117.552 172.376 128.133 165.253C133.434 161.683 138.096 157.987 142.426 154.706C146.774 151.412 150.782 148.541 154.844 146.54C158.891 144.547 162.957 143.435 167.422 143.63C170.576 143.768 173.976 144.56 177.753 146.205Z" fill="white"/>
<path fill-rule="evenodd" clip-rule="evenodd" d="M123.438 54.9267C125.829 51.5462 130.845 51.5469 133.236 54.9277L182.462 124.536C182.622 124.762 182.764 124.997 182.889 125.238C182.467 124.937 182.035 124.638 181.596 124.343C178.3 122.13 174.486 120.124 169.903 119.354C160.677 117.806 148.757 121.322 132.091 136.963C116.216 151.86 103.457 153.716 94.6287 151.871C91.3905 151.194 88.6461 150.01 86.4373 148.75L74.2127 131.464C72.7447 129.388 72.744 126.612 74.2117 124.536L123.438 54.9267ZM143.207 92.2568C135.199 92.2568 128.707 98.7488 128.707 106.757C128.707 114.765 135.199 121.257 143.207 121.257C151.215 121.257 157.707 114.765 157.707 106.757C157.707 98.7488 151.215 92.2568 143.207 92.2568Z" fill="white"/>
</g>
<defs>
<filter id="filter0_d_756_642" x="40" y="40" width="176" height="176" filterUnits="userSpaceOnUse" color-interpolation-filters="sRGB">
<feFlood flood-opacity="0" result="BackgroundImageFix"/>
<feColorMatrix in="SourceAlpha" type="matrix" values="0 0 0 0 0 0 0 0 0 0 0 0 0 0 0 0 0 0 127 0" result="hardAlpha"/>
<feOffset/>
<feGaussianBlur stdDeviation="4"/>
<feComposite in2="hardAlpha" operator="out"/>
<feColorMatrix type="matrix" values="0 0 0 0 0 0 0 0 0 0 0 0 0 0 0 0 0 0 0.15 0"/>
<feBlend mode="normal" in2="BackgroundImageFix" result="effect1_dropShadow_756_642"/>
<feBlend mode="normal" in="SourceGraphic" in2="effect1_dropShadow_756_642" result="shape"/>
</filter>
<linearGradient id="paint0_linear_756_642" x1="0" y1="0" x2="256" y2="256" gradientUnits="userSpaceOnUse">
<stop stop-color="#FC69FF"/>
<stop offset="1" stop-color="#7C3FFF"/>
</linearGradient>
<radialGradient id="paint1_radial_756_642" cx="0" cy="0" r="1" gradientUnits="userSpaceOnUse" gradientTransform="translate(128 -1.73537e-06) rotate(-90) scale(152.5 358.586)">
<stop stop-color="white"/>
<stop offset="1" stop-color="white" stop-opacity="0"/>
</radialGradient>
</defs>
</svg>
