<svg width="256" height="256" viewBox="0 0 256 256" fill="none" xmlns="http://www.w3.org/2000/svg">
<path d="M0 48C0 21.4903 21.4903 0 48 0H208C234.51 0 256 21.4903 256 48V208C256 234.51 234.51 256 208 256H48C21.4903 256 0 234.51 0 208V48Z" fill="url(#paint0_linear_756_647)"/>
<path d="M0 48C0 21.4903 21.4903 0 48 0H208C234.51 0 256 21.4903 256 48V208C256 234.51 234.51 256 208 256H48C21.4903 256 0 234.51 0 208V48Z" fill="white" fill-opacity="0.2"/>
<path d="M0 48C0 21.4903 21.4903 0 48 0H208C234.51 0 256 21.4903 256 48V208C256 234.51 234.51 256 208 256H48C21.4903 256 0 234.51 0 208V48Z" fill="url(#paint1_radial_756_647)" fill-opacity="0.1" style="mix-blend-mode:plus-lighter"/>
<path d="M208 252V256H48V252H208ZM252 208V48C252 23.6995 232.301 4 208 4H48C23.6995 4 4 23.6995 4 48V208C4 232.301 23.6995 252 48 252V256L47.3799 255.996C21.156 255.664 0 234.303 0 208V48C0 21.4903 21.4903 0 48 0H208C234.51 0 256 21.4903 256 48V208C256 234.51 234.51 256 208 256V252C232.301 252 252 232.301 252 208Z" fill="#FC69FF" fill-opacity="0.75" style="mix-blend-mode:hard-light"/>
<path d="M208 252V256H48V252H208ZM252 208V48C252 23.6995 232.301 4 208 4H48C23.6995 4 4 23.6995 4 48V208C4 232.301 23.6995 252 48 252V256L47.3799 255.996C21.156 255.664 0 234.303 0 208V48C0 21.4903 21.4903 0 48 0H208C234.51 0 256 21.4903 256 48V208C256 234.51 234.51 256 208 256V252C232.301 252 252 232.301 252 208Z" fill="white" fill-opacity="0.5"/>
<g filter="url(#filter0_d_756_647)">
<path d="M125.414 131.579C130.521 115.09 145.652 93.731 160.297 85.2375C163.234 83.5341 166.918 84.6685 168.217 87.8051C174.538 103.064 170.652 129.003 165.553 145.463C160.628 161.359 153.002 175.714 140.69 183.094C137.307 185.122 133.113 183.339 131.258 179.858C124.841 167.813 117.821 156.087 125.414 131.579Z" fill="white"/>
<path d="M91.3762 150.825C86.9028 138.44 83.0791 115.419 85.023 101.997C85.5327 98.478 88.6033 96.5488 91.4733 97.8261C104.194 103.488 113.151 120.061 114.238 128.978C114.294 129.433 114.289 129.909 114.259 130.368C112.165 161.573 116.396 169.01 118.309 173.393C118.329 173.438 118.353 173.483 118.379 173.525C122.958 180.939 115.743 179.368 112.634 177.428C104.112 172.113 95.6316 162.607 91.3762 150.825Z" fill="white"/>
<path d="M126.501 108.449C131.496 101.22 137.343 92.6284 140.553 87.2132C142.254 84.345 140.597 79.4629 138.078 77.3962C131.5 72.0002 128.83 69.2716 123 76.1425C118.314 81.6669 107.489 96.1973 110.5 105.949C113.512 115.7 117.657 121.247 126.501 108.449Z" fill="white"/>
</g>
<defs>
<filter id="filter0_d_756_647" x="40" y="40" width="176" height="176" filterUnits="userSpaceOnUse" color-interpolation-filters="sRGB">
<feFlood flood-opacity="0" result="BackgroundImageFix"/>
<feColorMatrix in="SourceAlpha" type="matrix" values="0 0 0 0 0 0 0 0 0 0 0 0 0 0 0 0 0 0 127 0" result="hardAlpha"/>
<feOffset/>
<feGaussianBlur stdDeviation="4"/>
<feComposite in2="hardAlpha" operator="out"/>
<feColorMatrix type="matrix" values="0 0 0 0 0 0 0 0 0 0 0 0 0 0 0 0 0 0 0.15 0"/>
<feBlend mode="normal" in2="BackgroundImageFix" result="effect1_dropShadow_756_647"/>
<feBlend mode="normal" in="SourceGraphic" in2="effect1_dropShadow_756_647" result="shape"/>
</filter>
<linearGradient id="paint0_linear_756_647" x1="0" y1="0" x2="256" y2="256" gradientUnits="userSpaceOnUse">
<stop stop-color="#FC69FF"/>
<stop offset="1" stop-color="#DE2A33"/>
</linearGradient>
<radialGradient id="paint1_radial_756_647" cx="0" cy="0" r="1" gradientUnits="userSpaceOnUse" gradientTransform="translate(128 -1.73537e-06) rotate(-90) scale(152.5 358.586)">
<stop stop-color="white"/>
<stop offset="1" stop-color="white" stop-opacity="0"/>
</radialGradient>
</defs>
</svg>
