<svg width="256" height="256" viewBox="0 0 256 256" fill="none" xmlns="http://www.w3.org/2000/svg">
<path d="M0 48C0 21.4903 21.4903 0 48 0H208C234.51 0 256 21.4903 256 48V208C256 234.51 234.51 256 208 256H48C21.4903 256 0 234.51 0 208V48Z" fill="url(#paint0_linear_756_537)"/>
<path d="M0 48C0 21.4903 21.4903 0 48 0H208C234.51 0 256 21.4903 256 48V208C256 234.51 234.51 256 208 256H48C21.4903 256 0 234.51 0 208V48Z" fill="white" fill-opacity="0.2"/>
<path d="M0 48C0 21.4903 21.4903 0 48 0H208C234.51 0 256 21.4903 256 48V208C256 234.51 234.51 256 208 256H48C21.4903 256 0 234.51 0 208V48Z" fill="url(#paint1_radial_756_537)" fill-opacity="0.1" style="mix-blend-mode:plus-lighter"/>
<path d="M208 252V256H48V252H208ZM252 208V48C252 23.6995 232.301 4 208 4H48C23.6995 4 4 23.6995 4 48V208C4 232.301 23.6995 252 48 252V256L47.3799 255.996C21.156 255.664 0 234.303 0 208V48C0 21.4903 21.4903 0 48 0H208C234.51 0 256 21.4903 256 48V208C256 234.51 234.51 256 208 256V252C232.301 252 252 232.301 252 208Z" fill="#77FAF6" fill-opacity="0.75" style="mix-blend-mode:hard-light"/>
<path d="M208 252V256H48V252H208ZM252 208V48C252 23.6995 232.301 4 208 4H48C23.6995 4 4 23.6995 4 48V208C4 232.301 23.6995 252 48 252V256L47.3799 255.996C21.156 255.664 0 234.303 0 208V48C0 21.4903 21.4903 0 48 0H208C234.51 0 256 21.4903 256 48V208C256 234.51 234.51 256 208 256V252C232.301 252 252 232.301 252 208Z" fill="white" fill-opacity="0.5"/>
<g filter="url(#filter0_d_756_537)">
<path d="M168.886 122.496C169.071 122.496 169.297 122.841 169.389 123.265C169.478 123.689 170.19 127.958 170.967 132.75C171.74 137.541 172.708 142.388 173.112 143.516C173.516 144.644 174.385 146.479 175.042 147.593C175.699 148.707 177.16 150.57 178.29 151.732C179.419 152.894 181.192 154.388 182.225 155.051C183.259 155.717 184.956 156.603 185.989 157.016C187.023 157.43 191.126 158.486 195.102 159.357C199.078 160.232 202.466 161.063 202.63 161.203C202.795 161.343 202.849 161.531 202.757 161.616C202.665 161.702 199.123 162.543 194.886 163.486C188.587 164.888 186.657 165.458 184.278 166.634C182.003 167.762 180.774 168.671 178.625 170.831C176.781 172.687 175.47 174.379 174.639 175.985C173.954 177.301 173.14 179.147 172.821 180.087C172.506 181.027 171.572 187.1 170.744 193.587C169.916 200.074 169.16 205.457 169.06 205.549C168.961 205.641 168.763 205.59 168.623 205.43C168.482 205.271 167.733 199.964 166.963 193.638C166.19 187.312 165.286 181.29 164.951 180.257C164.619 179.225 163.791 177.301 163.113 175.985C162.282 174.368 160.992 172.697 159.133 170.831C156.984 168.671 155.759 167.762 153.48 166.637C151.116 165.472 149.131 164.877 142.872 163.476C138.641 162.526 135.1 161.682 135.002 161.603C134.909 161.524 134.909 161.381 135.002 161.282C135.098 161.186 138.485 160.355 142.53 159.439C146.575 158.527 150.736 157.437 151.769 157.02C152.803 156.603 154.5 155.717 155.533 155.051C156.567 154.388 158.339 152.894 159.469 151.739C160.598 150.58 162.104 148.642 162.815 147.429C163.527 146.216 164.413 144.223 164.783 143.003C165.156 141.783 166.073 137.015 166.826 132.408C167.579 127.801 168.273 123.689 168.369 123.265C168.469 122.841 168.698 122.496 168.886 122.496Z" fill="white"/>
<path d="M101.253 56.5949C101.612 56.595 101.831 57.2376 102.033 58.902C102.19 60.1703 103.234 67.4398 104.356 75.051C105.475 82.6658 106.697 89.9697 107.067 91.2858C107.44 92.6016 108.23 94.7551 108.822 96.0709C109.417 97.3868 110.557 99.4648 111.358 100.685C112.155 101.905 113.531 103.751 114.417 104.786C115.3 105.822 116.98 107.486 118.15 108.484C119.321 109.486 121.511 111.068 123.016 111.998C124.522 112.927 126.986 114.165 128.492 114.746C130.001 115.327 136.373 116.933 142.693 118.324C148.995 119.714 154.186 120.848 154.242 120.85C154.29 120.85 154.328 121.041 154.328 121.277C154.328 121.561 150.666 122.501 143.463 124.07C137.488 125.372 131.596 126.77 130.374 127.177C129.152 127.587 127.147 128.4 125.925 128.984C124.704 129.572 122.777 130.659 121.648 131.401C120.519 132.143 118.527 133.725 117.223 134.918C115.916 136.111 113.935 138.315 112.819 139.819C111.703 141.323 110.324 143.476 109.753 144.604C109.185 145.732 108.343 147.656 107.884 148.876C107.426 150.096 106.837 152.021 106.574 153.149C106.314 154.277 105.085 163.351 103.85 173.314C102.611 183.273 101.568 191.453 101.53 191.493C101.489 191.531 101.294 191.455 101.092 191.322C100.886 191.191 99.7708 183.238 98.5903 173.485C97.3139 162.968 96.1197 154.509 95.6201 152.465C95.1239 150.445 94.0973 147.649 93.1049 145.629C92.181 143.75 90.6683 141.21 89.7444 139.99C88.817 138.77 87.2975 136.999 86.3667 136.059C85.4325 135.119 83.7525 133.636 82.6267 132.765C81.5043 131.893 79.4304 130.553 78.0172 129.791C76.6073 129.029 74.4516 128.027 73.2266 127.566C72.0049 127.105 65.9205 125.611 59.7096 124.248C53.499 122.884 48.3114 121.602 48.1808 121.394C48.0475 121.189 47.9722 120.994 48.0096 120.96C48.0438 120.929 53.0024 119.814 59.0251 118.488C65.0478 117.162 71.0533 115.713 72.3708 115.265C73.6883 114.818 75.7688 113.949 76.9905 113.334C78.2121 112.716 80.1389 111.584 81.2682 110.815C82.3974 110.046 84.3788 108.413 85.6688 107.186C86.9589 105.962 88.752 103.956 89.652 102.736C90.5554 101.516 91.8318 99.5125 92.4957 98.2923C93.1595 97.0721 94.1589 94.7652 94.7166 93.1657C95.2744 91.5695 95.9657 88.8763 96.2532 87.1845C96.5406 85.4927 97.6696 77.9187 98.7647 70.3516C100.342 59.4317 100.856 56.5949 101.253 56.5949Z" fill="white"/>
<path d="M180.85 50.4052C181.165 50.4057 181.62 52.8838 182.462 59.2061C183.218 64.8967 183.923 68.851 184.45 70.3994C184.898 71.7152 186.031 73.9334 186.965 75.3313C187.899 76.7292 189.353 78.462 190.202 79.1832C191.051 79.9078 192.741 81.0051 193.966 81.6237C195.362 82.3312 198.384 83.278 202.093 84.1768C205.813 85.079 207.996 85.7659 208 86.036C208.003 86.3094 205.981 86.9383 202.439 87.7654C198.884 88.5959 195.948 89.5086 194.308 90.2947C192.437 91.1902 191.088 92.1813 189.329 93.9483C187.639 95.6469 186.534 97.1476 185.651 98.9385C184.953 100.347 184.149 102.503 183.858 103.723C183.57 104.944 182.838 110.47 182.232 116C181.63 121.527 180.98 126.103 180.791 126.168C180.583 126.239 179.997 122.148 179.303 115.771C178.67 109.992 177.938 104.417 177.671 103.382C177.407 102.346 176.62 100.347 175.929 98.9385C175.043 97.1339 173.954 95.6574 172.254 93.9519C170.597 92.2875 169.092 91.163 167.446 90.3563C165.923 89.6078 162.959 88.685 159.322 87.8203C155.701 86.9625 153.594 86.306 153.59 86.036C153.587 85.7659 155.75 85.0859 159.49 84.1768C163.357 83.2404 166.217 82.3311 167.788 81.545C169.3 80.7863 170.94 79.5765 172.237 78.2641C173.496 76.9858 174.841 75.1331 175.713 73.4618C176.497 71.9648 177.37 69.8186 177.654 68.6907C177.938 67.5628 178.673 62.9862 179.289 58.5225C180.09 52.7293 180.535 50.4052 180.85 50.4052Z" fill="white"/>
</g>
<defs>
<filter id="filter0_d_756_537" x="40" y="40" width="176" height="176" filterUnits="userSpaceOnUse" color-interpolation-filters="sRGB">
<feFlood flood-opacity="0" result="BackgroundImageFix"/>
<feColorMatrix in="SourceAlpha" type="matrix" values="0 0 0 0 0 0 0 0 0 0 0 0 0 0 0 0 0 0 127 0" result="hardAlpha"/>
<feOffset/>
<feGaussianBlur stdDeviation="4"/>
<feComposite in2="hardAlpha" operator="out"/>
<feColorMatrix type="matrix" values="0 0 0 0 0 0 0 0 0 0 0 0 0 0 0 0 0 0 0.15 0"/>
<feBlend mode="normal" in2="BackgroundImageFix" result="effect1_dropShadow_756_537"/>
<feBlend mode="normal" in="SourceGraphic" in2="effect1_dropShadow_756_537" result="shape"/>
</filter>
<linearGradient id="paint0_linear_756_537" x1="0" y1="0" x2="256" y2="256" gradientUnits="userSpaceOnUse">
<stop stop-color="#77FAF6"/>
<stop offset="0.504808" stop-color="#797CFB"/>
<stop offset="1" stop-color="#7C3FFF"/>
</linearGradient>
<radialGradient id="paint1_radial_756_537" cx="0" cy="0" r="1" gradientUnits="userSpaceOnUse" gradientTransform="translate(128 -1.73537e-06) rotate(-90) scale(152.5 358.586)">
<stop stop-color="white"/>
<stop offset="1" stop-color="white" stop-opacity="0"/>
</radialGradient>
</defs>
</svg>
