<svg width="256" height="256" viewBox="0 0 256 256" fill="none" xmlns="http://www.w3.org/2000/svg">
<path d="M0 48C0 21.4903 21.4903 0 48 0H208C234.51 0 256 21.4903 256 48V208C256 234.51 234.51 256 208 256H48C21.4903 256 0 234.51 0 208V48Z" fill="url(#paint0_linear_756_588)"/>
<path d="M0 48C0 21.4903 21.4903 0 48 0H208C234.51 0 256 21.4903 256 48V208C256 234.51 234.51 256 208 256H48C21.4903 256 0 234.51 0 208V48Z" fill="white" fill-opacity="0.2"/>
<path d="M0 48C0 21.4903 21.4903 0 48 0H208C234.51 0 256 21.4903 256 48V208C256 234.51 234.51 256 208 256H48C21.4903 256 0 234.51 0 208V48Z" fill="url(#paint1_radial_756_588)" fill-opacity="0.1" style="mix-blend-mode:plus-lighter"/>
<path d="M208 252V256H48V252H208ZM252 208V48C252 23.6995 232.301 4 208 4H48C23.6995 4 4 23.6995 4 48V208C4 232.301 23.6995 252 48 252V256L47.3799 255.996C21.156 255.664 0 234.303 0 208V48C0 21.4903 21.4903 0 48 0H208C234.51 0 256 21.4903 256 48V208C256 234.51 234.51 256 208 256V252C232.301 252 252 232.301 252 208Z" fill="#C9FFCA" fill-opacity="0.75" style="mix-blend-mode:hard-light"/>
<path d="M208 252V256H48V252H208ZM252 208V48C252 23.6995 232.301 4 208 4H48C23.6995 4 4 23.6995 4 48V208C4 232.301 23.6995 252 48 252V256L47.3799 255.996C21.156 255.664 0 234.303 0 208V48C0 21.4903 21.4903 0 48 0H208C234.51 0 256 21.4903 256 48V208C256 234.51 234.51 256 208 256V252C232.301 252 252 232.301 252 208Z" fill="white" fill-opacity="0.5"/>
<g filter="url(#filter0_d_756_588)">
<path d="M88.5248 95.5454C86.5722 93.5928 86.5722 90.427 88.5248 88.4744C90.4774 86.5217 93.6432 86.5217 95.5959 88.4744L114.1 106.978C116.052 108.931 116.052 112.097 114.1 114.049C112.147 116.002 108.981 116.002 107.029 114.049L88.5248 95.5454Z" fill="white"/>
<path d="M167.217 160.095C169.169 162.048 169.169 165.214 167.217 167.166C165.264 169.119 162.098 169.119 160.146 167.166L141.642 148.662C139.689 146.71 139.689 143.544 141.642 141.591C143.594 139.639 146.76 139.639 148.713 141.591L167.217 160.095Z" fill="white"/>
<path d="M95.5258 167.474C93.5731 169.427 90.4073 169.427 88.4547 167.474C86.5021 165.522 86.5021 162.356 88.4547 160.403L106.959 141.899C108.911 139.947 112.077 139.947 114.03 141.899C115.982 143.852 115.982 147.018 114.03 148.971L95.5258 167.474Z" fill="white"/>
<path d="M160.076 88.7824C162.028 86.8298 165.194 86.8298 167.147 88.7824C169.099 90.735 169.099 93.9008 167.147 95.8535L148.643 114.357C146.69 116.31 143.524 116.31 141.572 114.357C139.619 112.405 139.619 109.239 141.572 107.286L160.076 88.7824Z" fill="white"/>
<path d="M187.005 132.985C189.759 132.984 191.99 130.752 191.99 127.998C191.99 125.244 189.757 123.011 187.002 123.012L160.807 123.021C158.053 123.022 155.822 125.255 155.822 128.008C155.822 130.763 158.056 132.996 160.81 132.995L187.005 132.985Z" fill="white"/>
<path d="M68.9947 123.035C66.2414 123.036 64.0099 125.268 64.0099 128.021C64.0099 130.776 66.2436 133.009 68.9984 133.008L95.1935 132.998C97.9468 132.997 100.178 130.765 100.178 128.012C100.178 125.257 97.9445 123.024 95.1898 123.025L68.9947 123.035Z" fill="white"/>
<path d="M132.965 68.9947C132.964 66.2414 130.732 64.0099 127.979 64.0099C125.224 64.0099 122.991 66.2436 122.992 68.9984L123.002 95.1934C123.003 97.9467 125.235 100.178 127.988 100.178C130.743 100.178 132.976 97.9445 132.975 95.1897L132.965 68.9947Z" fill="white"/>
<path d="M123.015 187.005C123.016 189.759 125.248 191.99 128.002 191.99C130.756 191.99 132.989 189.756 132.988 187.002L132.979 160.807C132.978 158.053 130.745 155.822 127.992 155.822C125.237 155.822 123.004 158.056 123.005 160.81L123.015 187.005Z" fill="white"/>
<path d="M126.435 114.414C127.216 113.633 128.483 113.633 129.264 114.414L141.285 126.435C142.066 127.216 142.066 128.482 141.285 129.263L129.264 141.284C128.483 142.065 127.216 142.065 126.435 141.284L114.415 129.263C113.634 128.482 113.634 127.216 114.415 126.435L126.435 114.414Z" fill="white"/>
</g>
<defs>
<filter id="filter0_d_756_588" x="40" y="40" width="176" height="176" filterUnits="userSpaceOnUse" color-interpolation-filters="sRGB">
<feFlood flood-opacity="0" result="BackgroundImageFix"/>
<feColorMatrix in="SourceAlpha" type="matrix" values="0 0 0 0 0 0 0 0 0 0 0 0 0 0 0 0 0 0 127 0" result="hardAlpha"/>
<feOffset/>
<feGaussianBlur stdDeviation="4"/>
<feComposite in2="hardAlpha" operator="out"/>
<feColorMatrix type="matrix" values="0 0 0 0 0 0 0 0 0 0 0 0 0 0 0 0 0 0 0.15 0"/>
<feBlend mode="normal" in2="BackgroundImageFix" result="effect1_dropShadow_756_588"/>
<feBlend mode="normal" in="SourceGraphic" in2="effect1_dropShadow_756_588" result="shape"/>
</filter>
<linearGradient id="paint0_linear_756_588" x1="0" y1="0" x2="256" y2="256" gradientUnits="userSpaceOnUse">
<stop stop-color="#ECDB69"/>
<stop offset="0.5" stop-color="#DE8FE0"/>
<stop offset="1" stop-color="#1BC0BA"/>
</linearGradient>
<radialGradient id="paint1_radial_756_588" cx="0" cy="0" r="1" gradientUnits="userSpaceOnUse" gradientTransform="translate(128 -1.73537e-06) rotate(-90) scale(152.5 358.586)">
<stop stop-color="white"/>
<stop offset="1" stop-color="white" stop-opacity="0"/>
</radialGradient>
</defs>
</svg>
