<svg width="256" height="256" viewBox="0 0 256 256" fill="none" xmlns="http://www.w3.org/2000/svg">
<path d="M0 48C0 21.4903 21.4903 0 48 0H208C234.51 0 256 21.4903 256 48V208C256 234.51 234.51 256 208 256H48C21.4903 256 0 234.51 0 208V48Z" fill="url(#paint0_linear_756_637)"/>
<path d="M0 48C0 21.4903 21.4903 0 48 0H208C234.51 0 256 21.4903 256 48V208C256 234.51 234.51 256 208 256H48C21.4903 256 0 234.51 0 208V48Z" fill="white" fill-opacity="0.2"/>
<path d="M0 48C0 21.4903 21.4903 0 48 0H208C234.51 0 256 21.4903 256 48V208C256 234.51 234.51 256 208 256H48C21.4903 256 0 234.51 0 208V48Z" fill="url(#paint1_radial_756_637)" fill-opacity="0.1" style="mix-blend-mode:plus-lighter"/>
<path d="M208 252V256H48V252H208ZM252 208V48C252 23.6995 232.301 4 208 4H48C23.6995 4 4 23.6995 4 48V208C4 232.301 23.6995 252 48 252V256L47.3799 255.996C21.156 255.664 0 234.303 0 208V48C0 21.4903 21.4903 0 48 0H208C234.51 0 256 21.4903 256 48V208C256 234.51 234.51 256 208 256V252C232.301 252 252 232.301 252 208Z" fill="#C9FFCA" fill-opacity="0.75" style="mix-blend-mode:hard-light"/>
<path d="M208 252V256H48V252H208ZM252 208V48C252 23.6995 232.301 4 208 4H48C23.6995 4 4 23.6995 4 48V208C4 232.301 23.6995 252 48 252V256L47.3799 255.996C21.156 255.664 0 234.303 0 208V48C0 21.4903 21.4903 0 48 0H208C234.51 0 256 21.4903 256 48V208C256 234.51 234.51 256 208 256V252C232.301 252 252 232.301 252 208Z" fill="white" fill-opacity="0.5"/>
<g filter="url(#filter0_d_756_637)">
<path d="M170.199 117.01C171.853 119.814 170.919 123.427 168.111 125.079L164.838 127.006C162.031 128.658 158.414 127.725 156.759 124.921L141.879 99.7054C138.825 94.5308 131.323 94.5526 128.3 99.7448L99.9919 148.359C96.9703 153.548 102.609 160.447 108.608 160.068C117.229 159.524 126.35 161.031 137.53 164.135L139.793 164.777L140.091 164.864L140.382 164.973C152.594 169.583 160.468 171.522 166.747 171.285C171.077 171.122 175.082 169.897 179.648 166.895C182.37 165.106 186.057 165.359 188.161 167.845L190.613 170.742C192.716 173.228 192.424 176.981 189.762 178.859C182.785 183.782 175.656 186.541 167.336 186.855C157.775 187.216 147.465 184.283 135.203 179.671C123.749 176.374 116.081 175.207 109.591 175.617C103.308 176.013 97.5012 177.929 89.836 181.941L78.1924 189.683C75.1466 191.708 71.105 191.369 68.4405 188.864L66.4757 187.018C63.8112 184.513 63.2272 180.505 65.0667 177.346L128.211 68.9073C131.235 63.715 138.737 63.6933 141.79 68.868L170.199 117.01Z" fill="white"/>
</g>
<defs>
<filter id="filter0_d_756_637" x="40" y="40" width="176" height="176" filterUnits="userSpaceOnUse" color-interpolation-filters="sRGB">
<feFlood flood-opacity="0" result="BackgroundImageFix"/>
<feColorMatrix in="SourceAlpha" type="matrix" values="0 0 0 0 0 0 0 0 0 0 0 0 0 0 0 0 0 0 127 0" result="hardAlpha"/>
<feOffset/>
<feGaussianBlur stdDeviation="4"/>
<feComposite in2="hardAlpha" operator="out"/>
<feColorMatrix type="matrix" values="0 0 0 0 0 0 0 0 0 0 0 0 0 0 0 0 0 0 0.15 0"/>
<feBlend mode="normal" in2="BackgroundImageFix" result="effect1_dropShadow_756_637"/>
<feBlend mode="normal" in="SourceGraphic" in2="effect1_dropShadow_756_637" result="shape"/>
</filter>
<linearGradient id="paint0_linear_756_637" x1="0" y1="0" x2="256" y2="256" gradientUnits="userSpaceOnUse">
<stop stop-color="#FC69FF"/>
<stop offset="1" stop-color="#A029A2"/>
</linearGradient>
<radialGradient id="paint1_radial_756_637" cx="0" cy="0" r="1" gradientUnits="userSpaceOnUse" gradientTransform="translate(128 -1.73537e-06) rotate(-90) scale(152.5 358.586)">
<stop stop-color="white"/>
<stop offset="1" stop-color="white" stop-opacity="0"/>
</radialGradient>
</defs>
</svg>
