<svg width="256" height="256" viewBox="0 0 256 256" fill="none" xmlns="http://www.w3.org/2000/svg">
<path d="M0 48C0 21.4903 21.4903 0 48 0H208C234.51 0 256 21.4903 256 48V208C256 234.51 234.51 256 208 256H48C21.4903 256 0 234.51 0 208V48Z" fill="url(#paint0_linear_756_598)"/>
<path d="M0 48C0 21.4903 21.4903 0 48 0H208C234.51 0 256 21.4903 256 48V208C256 234.51 234.51 256 208 256H48C21.4903 256 0 234.51 0 208V48Z" fill="white" fill-opacity="0.2"/>
<path d="M0 48C0 21.4903 21.4903 0 48 0H208C234.51 0 256 21.4903 256 48V208C256 234.51 234.51 256 208 256H48C21.4903 256 0 234.51 0 208V48Z" fill="url(#paint1_radial_756_598)" fill-opacity="0.1" style="mix-blend-mode:plus-lighter"/>
<path d="M208 252V256H48V252H208ZM252 208V48C252 23.6995 232.301 4 208 4H48C23.6995 4 4 23.6995 4 48V208C4 232.301 23.6995 252 48 252V256L47.3799 255.996C21.156 255.664 0 234.303 0 208V48C0 21.4903 21.4903 0 48 0H208C234.51 0 256 21.4903 256 48V208C256 234.51 234.51 256 208 256V252C232.301 252 252 232.301 252 208Z" fill="#C9FFCA" fill-opacity="0.75" style="mix-blend-mode:hard-light"/>
<path d="M208 252V256H48V252H208ZM252 208V48C252 23.6995 232.301 4 208 4H48C23.6995 4 4 23.6995 4 48V208C4 232.301 23.6995 252 48 252V256L47.3799 255.996C21.156 255.664 0 234.303 0 208V48C0 21.4903 21.4903 0 48 0H208C234.51 0 256 21.4903 256 48V208C256 234.51 234.51 256 208 256V252C232.301 252 252 232.301 252 208Z" fill="white" fill-opacity="0.5"/>
<g filter="url(#filter0_d_756_598)">
<path d="M109.677 109.676C120.86 98.4926 137.023 94.6564 153.354 97.6964C156.337 98.2518 158.666 100.581 159.222 103.564C162.262 119.895 158.425 136.058 147.242 147.241C136.058 158.425 119.895 162.261 103.565 159.221C100.581 158.666 98.2521 156.337 97.6967 153.354C94.6566 137.023 98.4932 120.86 109.677 109.676Z" fill="white"/>
<path d="M140.669 73.2584C122.054 54.6435 91.8738 54.643 73.2588 73.2577C54.6438 91.8727 54.6438 122.054 73.2588 140.669C91.8738 159.284 122.054 159.283 140.669 140.668L147.033 147.032L146.513 147.547C124.519 168.991 89.41 168.991 67.4162 147.547L66.8948 147.033C44.7651 124.903 44.7651 89.0235 66.8948 66.8938L67.4162 66.3793C89.5845 44.7658 125.077 44.9377 147.033 66.8945L147.548 67.4151C169.162 89.5834 168.99 125.076 147.033 147.032L140.669 140.668C159.284 122.053 159.284 91.8734 140.669 73.2584Z" fill="white"/>
<path d="M182.743 115.332C164.128 96.717 133.947 96.7164 115.332 115.331C96.717 133.946 96.717 164.128 115.332 182.743C133.947 201.357 164.128 201.357 182.743 182.742L189.107 189.106L188.586 189.621C166.592 211.065 131.483 211.064 109.489 189.621L108.968 189.106C86.8383 166.977 86.8383 131.097 108.968 108.967L109.489 108.453C131.658 86.8393 167.15 87.0112 189.107 108.968L189.622 109.489C211.235 131.657 211.063 167.149 189.107 189.106L182.743 182.742C201.357 164.127 201.357 133.947 182.743 115.332Z" fill="white"/>
</g>
<defs>
<filter id="filter0_d_756_598" x="40" y="40" width="176" height="176" filterUnits="userSpaceOnUse" color-interpolation-filters="sRGB">
<feFlood flood-opacity="0" result="BackgroundImageFix"/>
<feColorMatrix in="SourceAlpha" type="matrix" values="0 0 0 0 0 0 0 0 0 0 0 0 0 0 0 0 0 0 127 0" result="hardAlpha"/>
<feOffset/>
<feGaussianBlur stdDeviation="4"/>
<feComposite in2="hardAlpha" operator="out"/>
<feColorMatrix type="matrix" values="0 0 0 0 0 0 0 0 0 0 0 0 0 0 0 0 0 0 0.15 0"/>
<feBlend mode="normal" in2="BackgroundImageFix" result="effect1_dropShadow_756_598"/>
<feBlend mode="normal" in="SourceGraphic" in2="effect1_dropShadow_756_598" result="shape"/>
</filter>
<linearGradient id="paint0_linear_756_598" x1="0" y1="0" x2="256" y2="256" gradientUnits="userSpaceOnUse">
<stop stop-color="#63D24B"/>
<stop offset="1" stop-color="#1EB6B1"/>
</linearGradient>
<radialGradient id="paint1_radial_756_598" cx="0" cy="0" r="1" gradientUnits="userSpaceOnUse" gradientTransform="translate(128 -1.73537e-06) rotate(-90) scale(152.5 358.586)">
<stop stop-color="white"/>
<stop offset="1" stop-color="white" stop-opacity="0"/>
</radialGradient>
</defs>
</svg>
