<svg width="256" height="256" viewBox="0 0 256 256" fill="none" xmlns="http://www.w3.org/2000/svg">
<path d="M0 48C0 21.4903 21.4903 0 48 0H208C234.51 0 256 21.4903 256 48V208C256 234.51 234.51 256 208 256H48C21.4903 256 0 234.51 0 208V48Z" fill="url(#paint0_linear_756_606)"/>
<path d="M0 48C0 21.4903 21.4903 0 48 0H208C234.51 0 256 21.4903 256 48V208C256 234.51 234.51 256 208 256H48C21.4903 256 0 234.51 0 208V48Z" fill="white" fill-opacity="0.2"/>
<path d="M0 48C0 21.4903 21.4903 0 48 0H208C234.51 0 256 21.4903 256 48V208C256 234.51 234.51 256 208 256H48C21.4903 256 0 234.51 0 208V48Z" fill="url(#paint1_radial_756_606)" fill-opacity="0.1" style="mix-blend-mode:plus-lighter"/>
<path d="M208 252V256H48V252H208ZM252 208V48C252 23.6995 232.301 4 208 4H48C23.6995 4 4 23.6995 4 48V208C4 232.301 23.6995 252 48 252V256L47.3799 255.996C21.156 255.664 0 234.303 0 208V48C0 21.4903 21.4903 0 48 0H208C234.51 0 256 21.4903 256 48V208C256 234.51 234.51 256 208 256V252C232.301 252 252 232.301 252 208Z" fill="#C9FFCA" fill-opacity="0.75" style="mix-blend-mode:hard-light"/>
<path d="M208 252V256H48V252H208ZM252 208V48C252 23.6995 232.301 4 208 4H48C23.6995 4 4 23.6995 4 48V208C4 232.301 23.6995 252 48 252V256L47.3799 255.996C21.156 255.664 0 234.303 0 208V48C0 21.4903 21.4903 0 48 0H208C234.51 0 256 21.4903 256 48V208C256 234.51 234.51 256 208 256V252C232.301 252 252 232.301 252 208Z" fill="white" fill-opacity="0.5"/>
<g filter="url(#filter0_d_756_606)">
<path d="M134.509 130.167C78.0674 91.6487 100.011 66.9298 106.679 49.7625C89.3821 94.2946 124.109 105.75 159.059 134.996C192.987 163.387 163.652 203.264 161.91 205.569C161.858 205.639 161.83 205.674 161.83 205.674C161.83 205.674 161.858 205.639 161.91 205.569C163.546 203.389 189.208 167.497 134.509 130.167Z" fill="white"/>
<path d="M106.841 49.3481C107.046 49.4145 107.163 49.6121 107.129 49.8138L107.106 49.8997L106.711 50.9325C102.738 61.5405 101.791 70.2062 103.101 77.6645C104.454 85.3619 108.218 91.8157 113.627 97.8188C119.04 103.828 126.087 109.371 133.986 115.254C141.877 121.129 150.617 127.341 159.366 134.662C176.482 148.985 177.642 166.228 174.305 180.146C170.973 194.039 163.161 204.644 162.275 205.816C162.248 205.851 162.227 205.879 162.213 205.897C162.206 205.907 162.2 205.914 162.196 205.919C162.194 205.921 162.193 205.923 162.192 205.925L162.19 205.927C162.036 206.123 161.751 206.169 161.552 206.03C161.354 205.891 161.318 205.619 161.471 205.422L161.471 205.422C161.472 205.421 161.472 205.419 161.474 205.417C161.477 205.413 161.482 205.407 161.489 205.399C161.501 205.382 161.521 205.357 161.546 205.323C162.341 204.263 169.096 194.844 168.881 181.074C168.666 167.326 161.5 149.133 134.236 130.526C105.969 111.235 97.2203 95.3264 96.4741 81.9994C96.1016 75.3456 97.728 69.377 99.8539 64.0113C100.916 61.3299 102.105 58.7938 103.233 56.4008C104.363 54.0025 105.428 51.7538 106.254 49.6255C106.343 49.3967 106.606 49.2724 106.841 49.3481ZM103.545 57.8282C102.578 59.8913 101.594 62.0412 100.702 64.2918C98.6022 69.5927 97.0192 75.4304 97.3824 81.9169C98.1077 94.8707 106.609 110.58 134.783 129.808C162.218 148.53 169.571 166.949 169.791 181.025C169.882 186.875 168.738 191.956 167.314 195.976C169.56 191.67 171.939 186.154 173.418 179.983C176.702 166.289 175.565 149.398 158.753 135.33C150.028 128.029 141.32 121.841 133.411 115.952C125.51 110.069 118.402 104.482 112.928 98.4049C107.448 92.3219 103.59 85.7332 102.204 77.844C101.173 71.9758 101.514 65.4112 103.545 57.8282Z" fill="white"/>
<path d="M129.594 140.312C135.191 143.366 140.058 146.433 144.267 149.5C157.248 158.96 122.931 152.887 107.841 146.178C64.5506 126.931 92.6489 83.1336 92.6489 83.1336C92.6489 83.1336 78.6333 112.5 129.594 140.312Z" fill="white"/>
<path d="M92.2736 82.8933C92.4005 82.6954 92.6593 82.6297 92.8649 82.7437C93.0703 82.858 93.1522 83.1127 93.0514 83.3249L93.0503 83.3258L93.0492 83.3277C93.048 83.3303 93.0462 83.3349 93.0434 83.341C93.0377 83.3533 93.0292 83.3728 93.0177 83.3989C92.9945 83.4513 92.9597 83.5317 92.9163 83.6383C92.8296 83.8516 92.7076 84.1712 92.5692 84.5896C92.292 85.4271 91.9494 86.6599 91.6947 88.2278C91.1855 91.363 91.0267 95.8389 92.4414 101.179C95.2677 111.846 104.401 126.055 129.807 139.92C135.418 142.983 140.303 146.061 144.529 149.14C145.353 149.74 146.001 150.288 146.483 150.786C146.96 151.28 147.296 151.747 147.464 152.191C147.637 152.649 147.638 153.104 147.404 153.505C147.183 153.886 146.792 154.147 146.34 154.329C145.44 154.691 144.073 154.833 142.422 154.821C140.755 154.809 138.743 154.639 136.522 154.344C127.646 153.165 115.251 149.96 107.659 146.585C96.7593 141.739 90.3131 135.327 86.8059 128.409C83.3016 121.496 82.7543 114.122 83.5681 107.385C84.3818 100.649 86.559 94.5284 88.5277 90.0972C89.5126 87.8803 90.4467 86.0821 91.1357 84.8374C91.4802 84.215 91.7635 83.7301 91.9611 83.4006C92.06 83.2358 92.1377 83.1097 92.1908 83.0244C92.2172 82.9818 92.2377 82.9489 92.2516 82.9269C92.2582 82.9164 92.2634 82.9083 92.267 82.9026C92.2689 82.8997 92.2705 82.8966 92.2715 82.8951L92.2725 82.8942C92.2728 82.8937 92.2738 82.8929 92.649 83.1336L92.2736 82.8933ZM91.0236 86.9491C90.5119 87.945 89.9348 89.1243 89.3418 90.459C87.395 94.8411 85.253 100.872 84.4534 107.491C83.654 114.109 84.1988 121.294 87.6014 128.006C91.0012 134.712 97.2765 140.994 108.021 145.771C115.519 149.104 127.828 152.29 136.639 153.461C138.839 153.753 140.811 153.917 142.428 153.929C144.061 153.941 145.28 153.795 146.007 153.502C146.369 153.356 146.553 153.196 146.634 153.057C146.702 152.939 146.731 152.774 146.63 152.506C146.523 152.224 146.28 151.859 145.842 151.406C145.408 150.957 144.802 150.442 144.004 149.86C139.813 146.807 134.962 143.749 129.38 140.702C103.826 126.756 94.4863 112.376 91.58 101.408C90.1287 95.9297 90.2888 91.3255 90.8149 88.0855C90.8799 87.6858 90.9499 87.3064 91.0236 86.9491Z" fill="white"/>
</g>
<defs>
<filter id="filter0_d_756_606" x="40" y="40" width="176" height="176" filterUnits="userSpaceOnUse" color-interpolation-filters="sRGB">
<feFlood flood-opacity="0" result="BackgroundImageFix"/>
<feColorMatrix in="SourceAlpha" type="matrix" values="0 0 0 0 0 0 0 0 0 0 0 0 0 0 0 0 0 0 127 0" result="hardAlpha"/>
<feOffset/>
<feGaussianBlur stdDeviation="4"/>
<feComposite in2="hardAlpha" operator="out"/>
<feColorMatrix type="matrix" values="0 0 0 0 0 0 0 0 0 0 0 0 0 0 0 0 0 0 0.15 0"/>
<feBlend mode="normal" in2="BackgroundImageFix" result="effect1_dropShadow_756_606"/>
<feBlend mode="normal" in="SourceGraphic" in2="effect1_dropShadow_756_606" result="shape"/>
</filter>
<linearGradient id="paint0_linear_756_606" x1="0" y1="0" x2="256" y2="256" gradientUnits="userSpaceOnUse">
<stop stop-color="#FC69FF"/>
<stop offset="1" stop-color="#7C3FFF"/>
</linearGradient>
<radialGradient id="paint1_radial_756_606" cx="0" cy="0" r="1" gradientUnits="userSpaceOnUse" gradientTransform="translate(128 -1.73537e-06) rotate(-90) scale(152.5 358.586)">
<stop stop-color="white"/>
<stop offset="1" stop-color="white" stop-opacity="0"/>
</radialGradient>
</defs>
</svg>
