<svg width="36" height="36" viewBox="0 0 36 36" fill="none" xmlns="http://www.w3.org/2000/svg">
<g filter="url(#filter0_d_630_16)">
<path d="M23.7039 17.7647C23.8339 17.8947 23.8339 18.1053 23.7039 18.2353L12.629 29.3102C12.2481 29.6911 11.6305 29.691 11.2497 29.3099C10.8693 28.9291 10.8694 28.3119 11.2501 27.9313L20.9731 18.2083C21.0881 18.0932 21.0881 17.9068 20.9731 17.7917L11.25 8.06749C10.8694 7.68686 10.8694 7.06978 11.25 6.68918C11.6307 6.30855 12.2478 6.30855 12.6284 6.68918L23.7039 17.7647Z" fill="black"/>
<path d="M23.7039 17.7647C23.8339 17.8947 23.8339 18.1053 23.7039 18.2353L12.629 29.3102C12.2481 29.6911 11.6305 29.691 11.2497 29.3099C10.8693 28.9291 10.8694 28.3119 11.2501 27.9313L20.9731 18.2083C21.0881 18.0932 21.0881 17.9068 20.9731 17.7917L11.25 8.06749C10.8694 7.68686 10.8694 7.06978 11.25 6.68918C11.6307 6.30855 12.2478 6.30855 12.6284 6.68918L23.7039 17.7647Z" fill="white"/>
</g>
<defs>
<filter id="filter0_d_630_16" x="6.96448" y="3.40372" width="20.8369" height="31.1921" filterUnits="userSpaceOnUse" color-interpolation-filters="sRGB">
<feFlood flood-opacity="0" result="BackgroundImageFix"/>
<feColorMatrix in="SourceAlpha" type="matrix" values="0 0 0 0 0 0 0 0 0 0 0 0 0 0 0 0 0 0 127 0" result="hardAlpha"/>
<feOffset dy="1"/>
<feGaussianBlur stdDeviation="2"/>
<feComposite in2="hardAlpha" operator="out"/>
<feColorMatrix type="matrix" values="0 0 0 0 0 0 0 0 0 0 0 0 0 0 0 0 0 0 0.25 0"/>
<feBlend mode="normal" in2="BackgroundImageFix" result="effect1_dropShadow_630_16"/>
<feBlend mode="normal" in="SourceGraphic" in2="effect1_dropShadow_630_16" result="shape"/>
</filter>
</defs>
</svg>
