<svg width="36" height="36" viewBox="0 0 36 36" fill="none" xmlns="http://www.w3.org/2000/svg">
<path d="M18 18.5C15.8 18.5 13.9166 17.7003 12.35 16.101C10.7833 14.5017 9.99997 12.5791 9.99997 10.3333C9.99997 8.08747 10.7833 6.1649 12.35 4.56559C13.9166 2.96629 15.8 2.16663 18 2.16663C20.2 2.16663 22.0833 2.96629 23.65 4.56559C25.2166 6.1649 26 8.08747 26 10.3333C26 12.5791 25.2166 14.5017 23.65 16.101C22.0833 17.7003 20.2 18.5 18 18.5ZM1.99997 34.8333V29.1166C1.99997 27.9597 2.29164 26.8963 2.87497 25.9265C3.4583 24.9567 4.2333 24.2166 5.19997 23.7062C7.26663 22.6514 9.36663 21.8602 11.5 21.3328C13.6333 20.8054 15.8 20.5416 18 20.5416C20.2 20.5416 22.3666 20.8054 24.5 21.3328C26.6333 21.8602 28.7333 22.6514 30.8 23.7062C31.7666 24.2166 32.5416 24.9567 33.125 25.9265C33.7083 26.8963 34 27.9597 34 29.1166V34.8333H1.99997Z" fill="#1C1B1F"/>
<path fill-rule="evenodd" clip-rule="evenodd" d="M18 18.5C15.8 18.5 13.9166 17.7003 12.35 16.101C10.7833 14.5017 9.99997 12.5791 9.99997 10.3333C9.99997 8.08747 10.7833 6.1649 12.35 4.56559C13.9166 2.96629 15.8 2.16663 18 2.16663C20.2 2.16663 22.0833 2.96629 23.65 4.56559C25.2166 6.1649 26 8.08747 26 10.3333C26 12.5791 25.2166 14.5017 23.65 16.101C22.0833 17.7003 20.2 18.5 18 18.5ZM1.99997 34.8333V29.1166C1.99997 27.9597 2.29164 26.8963 2.87497 25.9265C3.4583 24.9567 4.2333 24.2166 5.19997 23.7062C7.26663 22.6514 9.36663 21.8602 11.5 21.3328C13.6333 20.8054 15.8 20.5416 18 20.5416C20.2 20.5416 22.3666 20.8054 24.5 21.3328C26.6333 21.8602 28.7333 22.6514 30.8 23.7062C31.7666 24.2166 32.5416 24.9567 33.125 25.9265C33.7083 26.8963 34 27.9597 34 29.1166V34.8333H1.99997Z" fill="white"/>
</svg>
