<svg width="17" height="17" viewBox="0 0 17 17" fill="none" xmlns="http://www.w3.org/2000/svg">
<path fill-rule="evenodd" clip-rule="evenodd" d="M10.9996 6.0354C10.9996 4.62923 10.5171 3.45509 9.54851 2.48649C8.57994 1.51795 7.40596 1.03613 5.99982 1.03613C4.59367 1.03615 3.4197 1.51792 2.45112 2.48649C1.48258 3.45509 1.00008 4.62923 1 6.0354C1 7.44173 1.4825 8.61649 2.45112 9.58517C3.41968 10.5537 4.59371 11.0355 5.99982 11.0355C6.56598 11.0355 7.09443 10.9456 7.58788 10.7684C8.0897 10.5883 8.52775 10.3459 8.90546 10.0437L9.20998 9.80038L14.4454 15.0361L15 14.4815L9.76457 9.24576L10.0078 8.94122C10.31 8.56346 10.5524 8.12545 10.7325 7.62357C10.9096 7.13014 10.9996 6.60152 10.9996 6.0354ZM8.97351 9.00928C9.78768 8.195 10.1984 7.19481 10.1984 6.0354C10.1983 4.87618 9.78754 3.87656 8.97351 3.06238C8.15926 2.24808 7.15922 1.83745 5.99982 1.83745C4.84051 1.83747 3.84118 2.24819 3.02698 3.06238C2.2128 3.8766 1.80134 4.87608 1.80126 6.0354C1.80126 7.19487 2.21272 8.19498 3.02698 9.00928C3.84117 9.82342 4.84055 10.2342 5.99982 10.2342C7.15922 10.2342 8.15926 9.82358 8.97351 9.00928Z" fill="#3D3B3B"/>
</svg>
