<svg width="187" height="48" viewBox="0 0 187 48" fill="none" xmlns="http://www.w3.org/2000/svg">
<path d="M92.842 24.3138L93.6859 17.8575L88.9598 21.8663L86.0903 17.6887L92.1246 15.2413L86.2591 13.1314L88.4534 8.53186L93.5593 12.5828L92.4622 6.42198L97.5259 6L96.6397 12.4984L101.408 8.44746L104.278 12.625L98.2011 15.1147L104.109 17.1824L101.914 21.7819L96.7663 17.8153L97.9057 23.8918L92.842 24.3138Z" fill="url(#paint0_linear_145_270)"/>
<path d="M39.9549 25.1096C41.2324 25.1096 42.3347 25.326 43.2619 25.7587C44.1891 26.1913 44.9102 26.7837 45.4254 27.5358C45.9507 28.2775 46.2392 29.1069 46.2907 30.0237V30.2092H43.1537L43.1383 30.101C43.0455 29.3902 42.7262 28.8132 42.1802 28.3703C41.6342 27.917 40.8924 27.6903 39.9549 27.6903C39.3574 27.6903 38.8371 27.7779 38.3941 27.953C37.9512 28.1281 37.6112 28.3806 37.3742 28.7102C37.1373 29.0296 37.0188 29.4057 37.0188 29.8383V29.8538C37.0188 30.1834 37.0961 30.4822 37.2506 30.75C37.4154 31.0179 37.6781 31.2497 38.0387 31.4454C38.3993 31.6412 38.8629 31.806 39.4295 31.9399L42.0875 32.5581C43.7461 32.9393 44.9205 33.4801 45.6108 34.1807C46.3113 34.8709 46.6616 35.8033 46.6616 36.9777V36.9932C46.6616 37.9821 46.3783 38.8527 45.8117 39.6048C45.2451 40.3568 44.4621 40.944 43.4628 41.3664C42.4738 41.7888 41.3405 42 40.0631 42C38.7032 42 37.5339 41.794 36.5552 41.3819C35.5868 40.9595 34.8244 40.3774 34.2681 39.6357C33.7118 38.8836 33.377 38.013 33.2637 37.0241L33.2482 36.885H36.5552L36.5861 37.0395C36.7509 37.7813 37.1167 38.3633 37.6833 38.7857C38.2499 39.1978 39.0432 39.4039 40.0631 39.4039C40.743 39.4039 41.3199 39.3214 41.7938 39.1566C42.2677 38.9815 42.6335 38.7342 42.891 38.4149C43.1486 38.0955 43.2774 37.7143 43.2774 37.2713V37.2559C43.2773 36.7305 43.1074 36.308 42.7674 35.9887C42.4274 35.6693 41.8196 35.4015 40.9439 35.1851L38.286 34.5825C37.2558 34.3455 36.3955 34.021 35.7053 33.6089C35.0253 33.1968 34.5154 32.692 34.1754 32.0945C33.8354 31.497 33.6654 30.8067 33.6654 30.0237V30.0083C33.6655 29.0296 33.9282 28.1745 34.4536 27.4431C34.979 26.7013 35.7156 26.1295 36.6634 25.7277C37.6112 25.3157 38.7084 25.1096 39.9549 25.1096Z" fill="white"/>
<path d="M53.631 25.4187H56.6753V28.0766H53.631V37.1941C53.631 38.0182 53.8113 38.5848 54.1719 38.8939C54.5325 39.1927 55.0682 39.3421 55.779 39.3421C55.9542 39.3421 56.1138 39.3369 56.2581 39.3266C56.4126 39.306 56.5517 39.2905 56.6753 39.2802V41.8609C56.4796 41.8918 56.2323 41.9227 55.9336 41.9536C55.6348 41.9846 55.3154 42 54.9755 42C53.3683 42 52.1681 41.6394 51.3749 40.9183C50.5919 40.1868 50.2004 39.0072 50.2004 37.3795V28.0766H47.867V25.4187H50.2004V21.1845H53.631V25.4187Z" fill="white"/>
<path fill-rule="evenodd" clip-rule="evenodd" d="M65.8236 25.1096C67.3483 25.1096 68.6567 25.4496 69.7488 26.1295C70.8511 26.7992 71.701 27.7522 72.2985 28.9884C72.8961 30.2143 73.1948 31.6412 73.1948 33.2689V34.397H61.6838C61.7002 35.3819 61.8746 36.2319 62.2076 36.9468C62.5681 37.6885 63.0781 38.2603 63.7374 38.6621C64.3968 39.0536 65.1746 39.2493 66.0709 39.2493C66.7302 39.2493 67.3123 39.1515 67.8171 38.9557C68.3219 38.7497 68.7391 38.4818 69.0688 38.1522C69.4088 37.8122 69.6457 37.4361 69.7797 37.0241L69.826 36.9004H73.0094L72.9785 37.0704C72.8446 37.7091 72.5921 38.3222 72.2213 38.9094C71.8504 39.4966 71.3662 40.0272 70.7687 40.501C70.1814 40.9646 69.486 41.3304 68.6825 41.5982C67.8789 41.8661 66.9826 42 65.9936 42C64.4071 42 63.0369 41.66 61.8831 40.9801C60.7395 40.2899 59.8587 39.3163 59.2406 38.0594C58.6327 36.7923 58.3288 35.3036 58.3288 33.5934V33.578C58.3288 31.8885 58.6379 30.4101 59.256 29.1429C59.8741 27.8655 60.7447 26.8764 61.8676 26.1759C62.9905 25.4651 64.3092 25.1096 65.8236 25.1096ZM65.8391 27.8448C65.0458 27.8448 64.335 28.0406 63.7065 28.4321C63.0781 28.8235 62.5836 29.4005 62.223 30.1628C61.9667 30.6975 61.802 31.3209 61.7279 32.0327H69.8772C69.8067 31.2871 69.6458 30.6431 69.3933 30.101C69.0534 29.3387 68.5743 28.772 67.9562 28.4012C67.3484 28.0303 66.6426 27.8448 65.8391 27.8448Z" fill="white"/>
<path fill-rule="evenodd" clip-rule="evenodd" d="M31.9656 41.6755H28.3186L26.2814 35.6487H17.6894L15.647 41.6755H12L20.113 19.3765H23.8681L31.9656 41.6755ZM18.6317 32.8671H25.341L22.0292 23.0698H21.9519L18.6317 32.8671Z" fill="white"/>
<path d="M82.9458 25.1096C83.1931 25.1096 83.4146 25.1251 83.6103 25.156C83.8163 25.1766 83.9812 25.2023 84.1048 25.2332V28.3393C83.9709 28.2878 83.77 28.2466 83.5021 28.2157C83.2343 28.1745 82.9355 28.1539 82.6058 28.1539C81.895 28.1539 81.2769 28.3085 80.7515 28.6175C80.2261 28.9163 79.8243 29.3541 79.5461 29.931C79.268 30.4976 79.1289 31.1828 79.1289 31.9863V41.6755H75.7601V25.4187H79.1289V28.2003H79.1907C79.4482 27.2422 79.9067 26.4901 80.566 25.9441C81.2253 25.3878 82.0186 25.1096 82.9458 25.1096Z" fill="white"/>
<path d="M109.719 21V9.79688H112.812C116.76 9.79688 118.734 11.6172 118.734 15.2578C118.734 16.987 118.185 18.3776 117.086 19.4297C115.992 20.4766 114.526 21 112.688 21H109.719ZM111.031 10.9844V19.8125H112.703C114.172 19.8125 115.315 19.4193 116.133 18.6328C116.951 17.8464 117.359 16.7318 117.359 15.2891C117.359 12.4193 115.833 10.9844 112.781 10.9844H111.031ZM126.492 21H125.211V19.75H125.18C124.622 20.7083 123.802 21.1875 122.719 21.1875C121.922 21.1875 121.297 20.9766 120.844 20.5547C120.396 20.1328 120.172 19.5729 120.172 18.875C120.172 17.3802 121.052 16.5104 122.812 16.2656L125.211 15.9297C125.211 14.5703 124.661 13.8906 123.562 13.8906C122.599 13.8906 121.729 14.2188 120.953 14.875V13.5625C121.74 13.0625 122.646 12.8125 123.672 12.8125C125.552 12.8125 126.492 13.8073 126.492 15.7969V21ZM125.211 16.9531L123.281 17.2188C122.688 17.3021 122.24 17.4505 121.938 17.6641C121.635 17.8724 121.484 18.2448 121.484 18.7812C121.484 19.1719 121.622 19.4922 121.898 19.7422C122.18 19.987 122.552 20.1094 123.016 20.1094C123.651 20.1094 124.174 19.888 124.586 19.4453C125.003 18.9974 125.211 18.4323 125.211 17.75V16.9531ZM128.422 20.7109V19.3359C129.12 19.8516 129.888 20.1094 130.727 20.1094C131.852 20.1094 132.414 19.7344 132.414 18.9844C132.414 18.7708 132.365 18.5911 132.266 18.4453C132.172 18.2943 132.042 18.1615 131.875 18.0469C131.714 17.9323 131.521 17.8307 131.297 17.7422C131.078 17.6484 130.841 17.5521 130.586 17.4531C130.232 17.3125 129.919 17.1719 129.648 17.0312C129.383 16.8854 129.159 16.724 128.977 16.5469C128.799 16.3646 128.664 16.1589 128.57 15.9297C128.482 15.7005 128.438 15.4323 128.438 15.125C128.438 14.75 128.523 14.4193 128.695 14.1328C128.867 13.8411 129.096 13.599 129.383 13.4062C129.669 13.2083 129.995 13.0599 130.359 12.9609C130.729 12.862 131.109 12.8125 131.5 12.8125C132.193 12.8125 132.812 12.9323 133.359 13.1719V14.4688C132.771 14.0833 132.094 13.8906 131.328 13.8906C131.089 13.8906 130.872 13.9193 130.68 13.9766C130.487 14.0286 130.32 14.1042 130.18 14.2031C130.044 14.3021 129.938 14.4219 129.859 14.5625C129.786 14.6979 129.75 14.849 129.75 15.0156C129.75 15.224 129.786 15.3984 129.859 15.5391C129.938 15.6797 130.049 15.8047 130.195 15.9141C130.341 16.0234 130.518 16.1224 130.727 16.2109C130.935 16.2995 131.172 16.3958 131.438 16.5C131.792 16.6354 132.109 16.776 132.391 16.9219C132.672 17.0625 132.911 17.224 133.109 17.4062C133.307 17.5833 133.458 17.7891 133.562 18.0234C133.672 18.2578 133.727 18.5365 133.727 18.8594C133.727 19.2552 133.638 19.599 133.461 19.8906C133.289 20.1823 133.057 20.4245 132.766 20.6172C132.474 20.8099 132.138 20.9531 131.758 21.0469C131.378 21.1406 130.979 21.1875 130.562 21.1875C129.74 21.1875 129.026 21.0286 128.422 20.7109ZM142.344 21H141.062V16.3906C141.062 14.724 140.443 13.8906 139.203 13.8906C138.578 13.8906 138.052 14.1328 137.625 14.6172C137.198 15.0964 136.984 15.7135 136.984 16.4688V21H135.703V9.15625H136.984V14.3281H137.016C137.63 13.3177 138.505 12.8125 139.641 12.8125C141.443 12.8125 142.344 13.8984 142.344 16.0703V21ZM146.078 19.8438H146.047V21H144.766V9.15625H146.047V14.4062H146.078C146.708 13.3438 147.63 12.8125 148.844 12.8125C149.87 12.8125 150.672 13.1719 151.25 13.8906C151.833 14.6042 152.125 15.5625 152.125 16.7656C152.125 18.1042 151.799 19.1771 151.148 19.9844C150.497 20.7865 149.607 21.1875 148.477 21.1875C147.419 21.1875 146.62 20.7396 146.078 19.8438ZM146.047 16.6172V17.7344C146.047 18.3958 146.26 18.9583 146.688 19.4219C147.12 19.8802 147.667 20.1094 148.328 20.1094C149.104 20.1094 149.711 19.8125 150.148 19.2188C150.591 18.625 150.812 17.7995 150.812 16.7422C150.812 15.8516 150.607 15.1536 150.195 14.6484C149.784 14.1432 149.227 13.8906 148.523 13.8906C147.779 13.8906 147.18 14.151 146.727 14.6719C146.273 15.1875 146.047 15.8359 146.047 16.6172ZM157.516 21.1875C156.333 21.1875 155.388 20.8151 154.68 20.0703C153.977 19.3203 153.625 18.3281 153.625 17.0938C153.625 15.75 153.992 14.7005 154.727 13.9453C155.461 13.1901 156.453 12.8125 157.703 12.8125C158.896 12.8125 159.826 13.1797 160.492 13.9141C161.164 14.6484 161.5 15.6667 161.5 16.9688C161.5 18.2448 161.138 19.2682 160.414 20.0391C159.695 20.8047 158.729 21.1875 157.516 21.1875ZM157.609 13.8906C156.786 13.8906 156.135 14.1719 155.656 14.7344C155.177 15.2917 154.938 16.0625 154.938 17.0469C154.938 17.9948 155.18 18.7422 155.664 19.2891C156.148 19.8359 156.797 20.1094 157.609 20.1094C158.438 20.1094 159.073 19.8411 159.516 19.3047C159.964 18.7682 160.188 18.0052 160.188 17.0156C160.188 16.0156 159.964 15.2448 159.516 14.7031C159.073 14.1615 158.438 13.8906 157.609 13.8906ZM169.273 21H167.992V19.75H167.961C167.404 20.7083 166.583 21.1875 165.5 21.1875C164.703 21.1875 164.078 20.9766 163.625 20.5547C163.177 20.1328 162.953 19.5729 162.953 18.875C162.953 17.3802 163.833 16.5104 165.594 16.2656L167.992 15.9297C167.992 14.5703 167.443 13.8906 166.344 13.8906C165.38 13.8906 164.51 14.2188 163.734 14.875V13.5625C164.521 13.0625 165.427 12.8125 166.453 12.8125C168.333 12.8125 169.273 13.8073 169.273 15.7969V21ZM167.992 16.9531L166.062 17.2188C165.469 17.3021 165.021 17.4505 164.719 17.6641C164.417 17.8724 164.266 18.2448 164.266 18.7812C164.266 19.1719 164.404 19.4922 164.68 19.7422C164.961 19.987 165.333 20.1094 165.797 20.1094C166.432 20.1094 166.956 19.888 167.367 19.4453C167.784 18.9974 167.992 18.4323 167.992 17.75V16.9531ZM175.859 14.2969C175.635 14.125 175.312 14.0391 174.891 14.0391C174.344 14.0391 173.885 14.2969 173.516 14.8125C173.151 15.3281 172.969 16.0312 172.969 16.9219V21H171.688V13H172.969V14.6484H173C173.182 14.0859 173.461 13.6484 173.836 13.3359C174.211 13.0182 174.63 12.8594 175.094 12.8594C175.427 12.8594 175.682 12.8958 175.859 12.9688V14.2969ZM184.078 21H182.797V19.6406H182.766C182.172 20.6719 181.255 21.1875 180.016 21.1875C179.01 21.1875 178.206 20.8307 177.602 20.1172C177.003 19.3984 176.703 18.4219 176.703 17.1875C176.703 15.8646 177.036 14.8047 177.703 14.0078C178.37 13.2109 179.258 12.8125 180.367 12.8125C181.466 12.8125 182.266 13.2448 182.766 14.1094H182.797V9.15625H184.078V21ZM182.797 17.3828V16.2031C182.797 15.5573 182.583 15.0104 182.156 14.5625C181.729 14.1146 181.188 13.8906 180.531 13.8906C179.75 13.8906 179.135 14.1771 178.688 14.75C178.24 15.3229 178.016 16.1146 178.016 17.125C178.016 18.0469 178.229 18.776 178.656 19.3125C179.089 19.8438 179.667 20.1094 180.391 20.1094C181.104 20.1094 181.682 19.8516 182.125 19.3359C182.573 18.8203 182.797 18.1693 182.797 17.3828Z" fill="white"/>
<defs>
<linearGradient id="paint0_linear_145_270" x1="47.641" y1="13.9833" x2="224.435" y2="9.28752" gradientUnits="userSpaceOnUse">
<stop offset="0.163956" stop-color="#9BBCC3"/>
<stop offset="0.229688" stop-color="#ABC2E2"/>
<stop offset="0.286465" stop-color="#BBB4DA"/>
<stop offset="0.351911" stop-color="#F8719D"/>
<stop offset="0.418485" stop-color="#FF6192"/>
</linearGradient>
</defs>
</svg>
