<svg width="105" height="48" viewBox="0 0 105 48" fill="none" xmlns="http://www.w3.org/2000/svg">
<path d="M92.842 24.3138L93.6859 17.8575L88.9598 21.8663L86.0903 17.6887L92.1246 15.2413L86.2591 13.1314L88.4534 8.53186L93.5593 12.5828L92.4622 6.42198L97.5259 6L96.6397 12.4984L101.408 8.44746L104.278 12.625L98.2011 15.1147L104.109 17.1824L101.914 21.7819L96.7663 17.8153L97.9057 23.8918L92.842 24.3138Z" fill="url(#paint0_linear_145_277)"/>
<path d="M39.9549 25.1096C41.2324 25.1096 42.3347 25.326 43.2619 25.7587C44.1891 26.1913 44.9102 26.7837 45.4254 27.5358C45.9507 28.2775 46.2392 29.1069 46.2907 30.0237V30.2092H43.1537L43.1383 30.101C43.0455 29.3902 42.7262 28.8132 42.1802 28.3703C41.6342 27.917 40.8924 27.6903 39.9549 27.6903C39.3574 27.6903 38.8371 27.7779 38.3941 27.953C37.9512 28.1281 37.6112 28.3806 37.3742 28.7102C37.1373 29.0296 37.0188 29.4057 37.0188 29.8383V29.8538C37.0188 30.1834 37.0961 30.4822 37.2506 30.75C37.4154 31.0179 37.6781 31.2497 38.0387 31.4454C38.3993 31.6412 38.8629 31.806 39.4295 31.9399L42.0875 32.5581C43.7461 32.9393 44.9205 33.4801 45.6108 34.1807C46.3113 34.8709 46.6616 35.8033 46.6616 36.9777V36.9932C46.6616 37.9821 46.3783 38.8527 45.8117 39.6048C45.2451 40.3568 44.4621 40.944 43.4628 41.3664C42.4738 41.7888 41.3405 42 40.0631 42C38.7032 42 37.5339 41.794 36.5552 41.3819C35.5868 40.9595 34.8244 40.3774 34.2681 39.6357C33.7118 38.8836 33.377 38.013 33.2637 37.0241L33.2482 36.885H36.5552L36.5861 37.0395C36.7509 37.7813 37.1167 38.3633 37.6833 38.7857C38.2499 39.1978 39.0432 39.4039 40.0631 39.4039C40.743 39.4039 41.3199 39.3214 41.7938 39.1566C42.2677 38.9815 42.6335 38.7342 42.891 38.4149C43.1486 38.0955 43.2774 37.7143 43.2774 37.2713V37.2559C43.2773 36.7305 43.1074 36.308 42.7674 35.9887C42.4274 35.6693 41.8196 35.4015 40.9439 35.1851L38.286 34.5825C37.2558 34.3455 36.3955 34.021 35.7053 33.6089C35.0253 33.1968 34.5154 32.692 34.1754 32.0945C33.8354 31.497 33.6654 30.8067 33.6654 30.0237V30.0083C33.6655 29.0296 33.9282 28.1745 34.4536 27.4431C34.979 26.7013 35.7156 26.1295 36.6634 25.7277C37.6112 25.3157 38.7084 25.1096 39.9549 25.1096Z" fill="#3D3B3B"/>
<path d="M53.631 25.4187H56.6753V28.0766H53.631V37.1941C53.631 38.0182 53.8113 38.5848 54.1719 38.8939C54.5325 39.1927 55.0682 39.3421 55.779 39.3421C55.9542 39.3421 56.1138 39.3369 56.2581 39.3266C56.4126 39.306 56.5517 39.2905 56.6753 39.2802V41.8609C56.4796 41.8918 56.2323 41.9227 55.9336 41.9536C55.6348 41.9846 55.3154 42 54.9755 42C53.3683 42 52.1681 41.6394 51.3749 40.9183C50.5919 40.1868 50.2004 39.0072 50.2004 37.3795V28.0766H47.867V25.4187H50.2004V21.1845H53.631V25.4187Z" fill="#3D3B3B"/>
<path fill-rule="evenodd" clip-rule="evenodd" d="M65.8236 25.1096C67.3483 25.1096 68.6567 25.4496 69.7488 26.1295C70.8511 26.7992 71.701 27.7522 72.2985 28.9884C72.8961 30.2143 73.1948 31.6412 73.1948 33.2689V34.397H61.6838C61.7002 35.3819 61.8746 36.2319 62.2076 36.9468C62.5681 37.6885 63.0781 38.2603 63.7374 38.6621C64.3968 39.0536 65.1746 39.2493 66.0709 39.2493C66.7302 39.2493 67.3123 39.1515 67.8171 38.9557C68.3219 38.7497 68.7391 38.4818 69.0688 38.1522C69.4088 37.8122 69.6457 37.4361 69.7797 37.0241L69.826 36.9004H73.0094L72.9785 37.0704C72.8446 37.7091 72.5921 38.3222 72.2213 38.9094C71.8504 39.4966 71.3662 40.0272 70.7687 40.501C70.1814 40.9646 69.486 41.3304 68.6825 41.5982C67.8789 41.8661 66.9826 42 65.9936 42C64.4071 42 63.0369 41.66 61.8831 40.9801C60.7395 40.2899 59.8587 39.3163 59.2406 38.0594C58.6327 36.7923 58.3288 35.3036 58.3288 33.5934V33.578C58.3288 31.8885 58.6379 30.4101 59.256 29.1429C59.8741 27.8655 60.7447 26.8764 61.8676 26.1759C62.9905 25.4651 64.3092 25.1096 65.8236 25.1096ZM65.8391 27.8448C65.0458 27.8448 64.335 28.0406 63.7065 28.4321C63.0781 28.8235 62.5836 29.4005 62.223 30.1628C61.9667 30.6975 61.802 31.3209 61.7279 32.0327H69.8772C69.8067 31.2871 69.6458 30.6431 69.3933 30.101C69.0534 29.3387 68.5743 28.772 67.9562 28.4012C67.3484 28.0303 66.6426 27.8448 65.8391 27.8448Z" fill="#3D3B3B"/>
<path fill-rule="evenodd" clip-rule="evenodd" d="M31.9656 41.6755H28.3186L26.2814 35.6487H17.6894L15.647 41.6755H12L20.113 19.3765H23.8681L31.9656 41.6755ZM18.6317 32.8671H25.341L22.0292 23.0698H21.9519L18.6317 32.8671Z" fill="#3D3B3B"/>
<path d="M82.9458 25.1096C83.1931 25.1096 83.4146 25.1251 83.6103 25.156C83.8163 25.1766 83.9812 25.2023 84.1048 25.2332V28.3393C83.9709 28.2878 83.77 28.2466 83.5021 28.2157C83.2343 28.1745 82.9355 28.1539 82.6058 28.1539C81.895 28.1539 81.2769 28.3085 80.7515 28.6175C80.2261 28.9163 79.8243 29.3541 79.5461 29.931C79.268 30.4976 79.1289 31.1828 79.1289 31.9863V41.6755H75.7601V25.4187H79.1289V28.2003H79.1907C79.4482 27.2422 79.9067 26.4901 80.566 25.9441C81.2253 25.3878 82.0186 25.1096 82.9458 25.1096Z" fill="#3D3B3B"/>
<defs>
<linearGradient id="paint0_linear_145_277" x1="47.641" y1="13.9833" x2="224.435" y2="9.28752" gradientUnits="userSpaceOnUse">
<stop offset="0.163956" stop-color="#9BBCC3"/>
<stop offset="0.229688" stop-color="#ABC2E2"/>
<stop offset="0.286465" stop-color="#BBB4DA"/>
<stop offset="0.351911" stop-color="#F8719D"/>
<stop offset="0.418485" stop-color="#FF6192"/>
</linearGradient>
</defs>
</svg>
