<svg width="32" height="32" viewBox="0 0 32 32" fill="none" xmlns="http://www.w3.org/2000/svg">
<path fill-rule="evenodd" clip-rule="evenodd" d="M16 0C24.8366 0 32 7.16344 32 16C32 24.8366 24.8366 32 16 32C7.16344 32 0 24.8366 0 16C0 7.16344 7.16344 0 16 0ZM15.75 17C14.6729 17 13.6118 17.1294 12.5674 17.3877C11.5231 17.646 10.495 18.0332 9.4834 18.5498C9.01013 18.7998 8.63032 19.1627 8.34473 19.6377C8.05925 20.1126 7.91699 20.6336 7.91699 21.2002V24H23.583V21.2002C23.583 20.6336 23.4407 20.1126 23.1553 19.6377C22.8697 19.1627 22.4899 18.7998 22.0166 18.5498C21.005 18.0332 19.9769 17.646 18.9326 17.3877C17.8882 17.1294 16.8271 17 15.75 17ZM15.75 8C14.6729 8 13.7504 8.39147 12.9834 9.1748C12.2165 9.95811 11.833 10.9001 11.833 12C11.833 13.0999 12.2165 14.0419 12.9834 14.8252C13.7504 15.6085 14.6729 16 15.75 16C16.8271 16 17.7496 15.6085 18.5166 14.8252C19.2835 14.0419 19.667 13.0999 19.667 12C19.667 10.9001 19.2835 9.95811 18.5166 9.1748C17.7496 8.39147 16.8271 8 15.75 8Z" fill="white"/>
</svg>
