<svg width="24" height="24" viewBox="0 0 24 24" fill="none" xmlns="http://www.w3.org/2000/svg">
<g filter="url(#filter0_d_319_635)">
<path d="M8.19727 11.8431C8.11063 11.9298 8.11064 12.0702 8.19727 12.1569L15.5805 19.5401C15.8345 19.7941 16.2462 19.794 16.5001 19.5399C16.7537 19.286 16.7536 18.8746 16.4998 18.6208L10.0178 12.1388C9.94115 12.0622 9.94115 11.9378 10.0178 11.8612L16.4999 5.37832C16.7536 5.12457 16.7536 4.71319 16.4999 4.45945C16.2461 4.2057 15.8347 4.2057 15.581 4.45945L8.19727 11.8431Z" fill="#3D3B3B"/>
<path d="M8.19727 11.8431C8.11063 11.9298 8.11064 12.0702 8.19727 12.1569L15.5805 19.5401C15.8345 19.7941 16.2462 19.794 16.5001 19.5399C16.7537 19.286 16.7536 18.8746 16.4998 18.6208L10.0178 12.1388C9.94115 12.0622 9.94115 11.9378 10.0178 11.8612L16.4999 5.37832C16.7536 5.12457 16.7536 4.71319 16.4999 4.45945C16.2461 4.2057 15.8347 4.2057 15.581 4.45945L8.19727 11.8431Z" fill="#3D3B3B"/>
</g>
<defs>
<filter id="filter0_d_319_635" x="5.46566" y="2.26904" width="13.8912" height="20.7948" filterUnits="userSpaceOnUse" color-interpolation-filters="sRGB">
<feFlood flood-opacity="0" result="BackgroundImageFix"/>
<feColorMatrix in="SourceAlpha" type="matrix" values="0 0 0 0 0 0 0 0 0 0 0 0 0 0 0 0 0 0 127 0" result="hardAlpha"/>
<feOffset dy="0.666667"/>
<feGaussianBlur stdDeviation="1.33333"/>
<feComposite in2="hardAlpha" operator="out"/>
<feColorMatrix type="matrix" values="0 0 0 0 0 0 0 0 0 0 0 0 0 0 0 0 0 0 0.25 0"/>
<feBlend mode="normal" in2="BackgroundImageFix" result="effect1_dropShadow_319_635"/>
<feBlend mode="normal" in="SourceGraphic" in2="effect1_dropShadow_319_635" result="shape"/>
</filter>
</defs>
</svg>
