<svg width="24" height="24" viewBox="0 0 24 24" fill="none" xmlns="http://www.w3.org/2000/svg">
<g filter="url(#filter0_d_319_643)">
<path d="M15.8022 11.8431C15.8889 11.9298 15.8889 12.0702 15.8022 12.1569L8.41896 19.5401C8.16502 19.7941 7.75328 19.794 7.49946 19.5399C7.2458 19.286 7.2459 18.8746 7.49967 18.6208L13.9817 12.1388C14.0584 12.0622 14.0584 11.9378 13.9817 11.8612L7.49963 5.37832C7.24591 5.12457 7.24592 4.71319 7.49966 4.45945C7.7534 4.2057 8.16481 4.2057 8.41856 4.45945L15.8022 11.8431Z" fill="#3D3B3B"/>
<path d="M15.8022 11.8431C15.8889 11.9298 15.8889 12.0702 15.8022 12.1569L8.41896 19.5401C8.16502 19.7941 7.75328 19.794 7.49946 19.5399C7.2458 19.286 7.2459 18.8746 7.49967 18.6208L13.9817 12.1388C14.0584 12.0622 14.0584 11.9378 13.9817 11.8612L7.49963 5.37832C7.24591 5.12457 7.24592 4.71319 7.49966 4.45945C7.7534 4.2057 8.16481 4.2057 8.41856 4.45945L15.8022 11.8431Z" fill="#3D3B3B"/>
</g>
<defs>
<filter id="filter0_d_319_643" x="4.64266" y="2.26904" width="13.8912" height="20.7948" filterUnits="userSpaceOnUse" color-interpolation-filters="sRGB">
<feFlood flood-opacity="0" result="BackgroundImageFix"/>
<feColorMatrix in="SourceAlpha" type="matrix" values="0 0 0 0 0 0 0 0 0 0 0 0 0 0 0 0 0 0 127 0" result="hardAlpha"/>
<feOffset dy="0.666667"/>
<feGaussianBlur stdDeviation="1.33333"/>
<feComposite in2="hardAlpha" operator="out"/>
<feColorMatrix type="matrix" values="0 0 0 0 0 0 0 0 0 0 0 0 0 0 0 0 0 0 0.25 0"/>
<feBlend mode="normal" in2="BackgroundImageFix" result="effect1_dropShadow_319_643"/>
<feBlend mode="normal" in="SourceGraphic" in2="effect1_dropShadow_319_643" result="shape"/>
</filter>
</defs>
</svg>
