<svg width="24" height="24" viewBox="0 0 24 24" fill="none" xmlns="http://www.w3.org/2000/svg">
<path d="M4.5 19C4.5 19.5523 4.05228 20 3.5 20H2.5C1.94772 20 1.5 19.5523 1.5 19V13C1.5 12.4477 1.94772 12 2.5 12H3.5C4.05228 12 4.5 12.4477 4.5 13V19Z" fill="#627091"/>
<path d="M10.5 19C10.5 19.5523 10.0523 20 9.5 20H8.5C7.94772 20 7.5 19.5523 7.5 19V10.5C7.5 9.94772 7.94772 9.5 8.5 9.5H9.5C10.0523 9.5 10.5 9.94772 10.5 10.5V19Z" fill="#627091"/>
<path d="M16.5 19C16.5 19.5523 16.0523 20 15.5 20H14.5C13.9477 20 13.5 19.5523 13.5 19V8C13.5 7.44772 13.9477 7 14.5 7H15.5C16.0523 7 16.5 7.44772 16.5 8V19Z" fill="#627091"/>
<path d="M22.5 19C22.5 19.5523 22.0523 20 21.5 20H20.5C19.9477 20 19.5 19.5523 19.5 19V5C19.5 4.44772 19.9477 4 20.5 4H21.5C22.0523 4 22.5 4.44772 22.5 5V19Z" fill="#627091"/>
</svg>
