<svg width="192" height="192" viewBox="0 0 192 192" fill="none" xmlns="http://www.w3.org/2000/svg">
<rect width="192" height="192" rx="12" fill="#393939"/>
<rect width="192" height="192" rx="12" fill="#393939"/>
<path d="M95.9999 95.9999C90.2249 95.9999 85.2812 93.911 81.1687 89.7333C77.0562 85.5555 74.9999 80.5333 74.9999 74.6666C74.9999 68.7999 77.0562 63.7777 81.1687 59.5999C85.2812 55.4221 90.2249 53.3333 95.9999 53.3333C101.775 53.3333 106.719 55.4221 110.831 59.5999C114.944 63.7777 117 68.7999 117 74.6666C117 80.5333 114.944 85.5555 110.831 89.7333C106.719 93.911 101.775 95.9999 95.9999 95.9999ZM53.9999 138.667V123.733C53.9999 120.711 54.7655 117.933 56.2968 115.4C57.828 112.867 59.8624 110.933 62.3999 109.6C67.8249 106.844 73.3374 104.778 78.9374 103.4C84.5374 102.022 90.2249 101.333 95.9999 101.333C101.775 101.333 107.462 102.022 113.062 103.4C118.662 104.778 124.175 106.844 129.6 109.6C132.137 110.933 134.172 112.867 135.703 115.4C137.234 117.933 138 120.711 138 123.733V138.667H53.9999Z" fill="#DDDDDD"/>
<path fill-rule="evenodd" clip-rule="evenodd" d="M95.9999 95.9999C90.2249 95.9999 85.2812 93.911 81.1687 89.7333C77.0562 85.5555 74.9999 80.5333 74.9999 74.6666C74.9999 68.7999 77.0562 63.7777 81.1687 59.5999C85.2812 55.4221 90.2249 53.3333 95.9999 53.3333C101.775 53.3333 106.719 55.4221 110.831 59.5999C114.944 63.7777 117 68.7999 117 74.6666C117 80.5333 114.944 85.5555 110.831 89.7333C106.719 93.911 101.775 95.9999 95.9999 95.9999ZM53.9999 138.667V123.733C53.9999 120.711 54.7655 117.933 56.2968 115.4C57.828 112.867 59.8624 110.933 62.3999 109.6C67.8249 106.844 73.3374 104.778 78.9374 103.4C84.5374 102.022 90.2249 101.333 95.9999 101.333C101.775 101.333 107.462 102.022 113.062 103.4C118.662 104.778 124.175 106.844 129.6 109.6C132.137 110.933 134.172 112.867 135.703 115.4C137.234 117.933 138 120.711 138 123.733V138.667H53.9999Z" fill="#DDDDDD"/>
<mask id="path-3-outside-1_730_741" maskUnits="userSpaceOnUse" x="115" y="110" width="42" height="44" fill="black">
<rect fill="white" x="115" y="110" width="42" height="44"/>
<path fill-rule="evenodd" clip-rule="evenodd" d="M134.952 150L134.706 149.988C134.135 149.935 133.592 149.701 133.156 149.316C132.658 148.876 132.333 148.268 132.244 147.604L132.242 147.59L131.918 145.413L131.917 145.414C131.879 145.121 131.781 144.838 131.625 144.586C131.464 144.324 131.246 144.101 130.99 143.934L129.336 142.837C129.085 142.667 128.8 142.558 128.505 142.517C128.208 142.475 127.904 142.502 127.616 142.596L127.615 142.595L127.61 142.597L127.605 142.598L127.606 142.599L125.159 143.384L124.938 143.444C124.418 143.564 123.872 143.526 123.37 143.334C122.795 143.114 122.31 142.703 121.995 142.168L120.487 139.615C120.14 139.021 120.014 138.321 120.133 137.642C120.152 137.535 120.18 137.424 120.214 137.309C120.216 137.302 120.217 137.299 120.224 137.276C120.245 137.21 120.267 137.145 120.292 137.084C120.295 137.075 120.298 137.068 120.309 137.041C120.33 136.991 120.355 136.936 120.385 136.874C120.401 136.841 120.42 136.805 120.447 136.756C120.471 136.712 120.485 136.687 120.498 136.665C120.518 136.63 120.543 136.591 120.576 136.542C120.62 136.476 120.625 136.465 120.64 136.444C120.645 136.437 120.649 136.431 120.653 136.426C120.792 136.236 120.957 136.063 121.139 135.912L122.625 134.71L122.627 134.709C122.878 134.506 123.076 134.25 123.21 133.965C123.346 133.679 123.416 133.365 123.416 133.047L123.416 130.736C123.411 130.422 123.34 130.114 123.207 129.833C123.075 129.554 122.883 129.301 122.64 129.098L122.634 129.093L122.628 129.089L121.09 127.838L121.084 127.833C120.543 127.399 120.173 126.78 120.047 126.091C119.922 125.402 120.049 124.69 120.403 124.089L120.405 124.086L121.862 121.598L121.867 121.59C122.151 121.094 122.579 120.703 123.088 120.467L123.312 120.375C123.387 120.348 123.465 120.324 123.543 120.304L123.752 120.259C123.766 120.256 123.769 120.256 123.821 120.248L123.968 120.23C124.032 120.224 124.028 120.225 124.044 120.224C124.185 120.214 124.324 120.215 124.462 120.228L124.532 120.235C124.59 120.242 124.642 120.249 124.691 120.258C124.715 120.262 124.732 120.266 124.746 120.269C124.822 120.284 124.886 120.299 124.944 120.314L125.209 120.402L127.397 121.25L127.398 121.249C127.65 121.356 127.921 121.414 128.197 121.414C128.494 121.414 128.786 121.349 129.054 121.226L129.095 121.207L129.133 121.185L130.887 120.178L130.911 120.164C131.179 120 131.409 119.778 131.583 119.515L131.703 119.311C131.733 119.252 131.759 119.193 131.782 119.137L131.783 119.136C131.844 118.985 131.891 118.822 131.917 118.649L132.268 116.405L132.27 116.394C132.366 115.728 132.694 115.121 133.195 114.683C133.258 114.627 133.332 114.571 133.421 114.508C133.457 114.483 133.497 114.455 133.547 114.424C133.605 114.388 133.601 114.39 133.617 114.381L133.756 114.305C133.769 114.298 133.781 114.292 133.79 114.287C133.794 114.285 133.799 114.283 133.802 114.281C133.806 114.279 133.809 114.277 133.812 114.275C133.82 114.271 133.825 114.27 133.825 114.27C133.894 114.237 133.964 114.207 134.036 114.18L134.253 114.107L134.31 114.092L134.484 114.052C134.544 114.04 134.601 114.031 134.655 114.024L134.667 114.023C134.738 114.015 134.803 114.008 134.865 114.005L135.019 114L137.886 114L138.1 114.008C138.109 114.009 138.119 114.01 138.129 114.011L138.147 114.013C138.155 114.014 138.165 114.014 138.176 114.016C138.238 114.022 138.294 114.029 138.345 114.037C138.367 114.041 138.384 114.044 138.446 114.057C138.493 114.066 138.533 114.075 138.569 114.084C138.603 114.092 138.632 114.1 138.659 114.107C138.7 114.119 138.743 114.132 138.786 114.146C138.83 114.161 138.86 114.172 138.885 114.182C138.909 114.191 138.931 114.2 138.993 114.227C139.065 114.258 139.071 114.26 139.091 114.27C139.114 114.28 139.134 114.291 139.194 114.322L139.297 114.377C139.36 114.413 139.417 114.45 139.471 114.487L139.685 114.649L139.845 114.794C139.845 114.794 139.849 114.798 139.861 114.811C139.868 114.818 139.872 114.823 139.882 114.834L139.914 114.867C139.967 114.923 139.984 114.94 140.002 114.961C140.001 114.959 140.003 114.962 140.013 114.975C140.016 114.978 140.018 114.981 140.021 114.985C140.024 114.989 140.028 114.993 140.032 114.998C140.039 115.007 140.049 115.02 140.06 115.033C140.1 115.082 140.124 115.114 140.145 115.143L140.202 115.223C140.225 115.257 140.248 115.292 140.27 115.327L140.324 115.419L140.382 115.528C140.408 115.579 140.421 115.603 140.432 115.627L140.472 115.724L140.52 115.837L140.588 116.049L140.65 116.309L141.079 118.546C141.115 118.759 141.183 118.967 141.286 119.161L141.298 119.185L141.313 119.208L141.374 119.309L141.388 119.334L141.405 119.358L141.547 119.543C141.693 119.711 141.865 119.851 142.055 119.962L143.945 121.104C144.144 121.226 144.363 121.312 144.59 121.356L144.823 121.388L145.057 121.392C145.282 121.382 145.506 121.334 145.717 121.248L147.887 120.397L148.018 120.349C148.031 120.345 148.049 120.34 148.07 120.333L148.176 120.302L148.253 120.281L148.393 120.251C148.451 120.24 148.514 120.231 148.584 120.223C148.599 120.221 148.612 120.219 148.622 120.218L148.627 120.218C148.779 120.203 148.932 120.199 149.084 120.21L149.085 120.211L149.088 120.211C149.092 120.211 149.095 120.212 149.1 120.213C149.105 120.213 149.111 120.214 149.117 120.215C149.129 120.216 149.145 120.218 149.163 120.22L149.31 120.236C149.484 120.263 149.653 120.306 149.813 120.363L150.02 120.448L150.04 120.457C150.084 120.478 150.131 120.501 150.178 120.527L150.338 120.622C150.398 120.66 150.422 120.675 150.446 120.691L150.518 120.745L150.634 120.834C150.653 120.849 150.664 120.86 150.719 120.91L150.803 120.987L150.896 121.085C150.94 121.133 150.952 121.144 150.966 121.161L151.053 121.271L151.104 121.338C151.174 121.434 151.232 121.523 151.28 121.607L152.622 124.097L152.629 124.112L152.732 124.313L152.74 124.333C152.743 124.341 152.746 124.347 152.75 124.358C152.755 124.368 152.76 124.38 152.765 124.394C152.79 124.451 152.808 124.494 152.822 124.532C152.829 124.552 152.832 124.561 152.852 124.623C152.874 124.689 152.884 124.721 152.893 124.752C152.898 124.769 152.897 124.77 152.912 124.83C152.926 124.886 152.938 124.94 152.948 124.991C152.952 125.014 152.957 125.037 152.96 125.061C152.968 125.106 152.974 125.153 152.98 125.202C152.985 125.248 152.988 125.272 152.99 125.293L152.997 125.455C152.997 125.478 152.999 125.497 153 125.511C153 125.517 153 125.523 153 125.527L153 125.537C153 125.609 152.998 125.681 152.993 125.75C152.987 125.828 152.977 125.909 152.963 125.993C152.859 126.641 152.54 127.232 152.059 127.67L152.045 127.682L150.144 129.479C149.924 129.685 149.747 129.935 149.627 130.214C149.538 130.424 149.481 130.646 149.46 130.873L149.452 131.101L149.452 132.833L149.453 132.85C149.462 133.145 149.532 133.434 149.655 133.699C149.779 133.966 149.956 134.205 150.174 134.402L150.189 134.416L150.205 134.429L152.018 135.932C152.093 135.997 152.169 136.075 152.254 136.17L152.35 136.276C152.371 136.302 152.388 136.327 152.437 136.393C152.447 136.406 152.455 136.417 152.462 136.427C152.471 136.438 152.475 136.442 152.481 136.45L152.493 136.467C152.509 136.491 152.521 136.51 152.564 136.58L152.623 136.676L152.675 136.776C152.704 136.832 152.722 136.868 152.737 136.9C152.747 136.923 152.759 136.95 152.776 136.99C152.797 137.041 152.814 137.085 152.829 137.125C152.837 137.149 152.846 137.176 152.863 137.229C152.878 137.278 152.889 137.316 152.898 137.349C152.928 137.461 152.951 137.562 152.965 137.655C153.07 138.33 152.933 139.019 152.58 139.6L152.575 139.607L151.037 142.192L151.038 142.193C150.898 142.426 150.72 142.637 150.513 142.822L150.512 142.823C150.459 142.871 150.438 142.889 150.417 142.907C150.4 142.921 150.388 142.929 150.334 142.97C150.283 143.009 150.249 143.033 150.22 143.053L150.071 143.147C150.057 143.155 150.058 143.155 150.054 143.157L149.883 143.249C149.88 143.251 149.876 143.251 149.873 143.253C149.865 143.256 149.855 143.261 149.842 143.267C149.789 143.291 149.734 143.315 149.678 143.336L149.647 143.349L149.649 143.349L149.536 143.387C148.91 143.587 148.233 143.551 147.631 143.285L147.588 143.268L145.902 142.614L145.902 142.616C145.646 142.506 145.369 142.445 145.088 142.445L144.861 142.458C144.635 142.483 144.415 142.546 144.21 142.643L144.186 142.654L144.163 142.667L142.018 143.823L142.017 143.822L142.005 143.829C141.708 143.994 141.455 144.232 141.269 144.52C141.088 144.8 140.976 145.12 140.944 145.454L140.728 147.48L140.727 147.486C140.703 147.722 140.651 147.952 140.572 148.17C140.568 148.181 140.563 148.194 140.558 148.207C140.534 148.271 140.506 148.335 140.477 148.397L140.464 148.425C140.435 148.486 140.402 148.548 140.367 148.609C140.363 148.616 140.365 148.612 140.35 148.637C140.21 148.875 140.034 149.092 139.83 149.279C139.386 149.684 138.826 149.931 138.237 149.987L137.983 150L134.952 150ZM136.542 138.76C137.876 138.76 139.18 138.361 140.29 137.613L140.494 137.47C140.987 137.11 141.427 136.686 141.804 136.212C142.201 135.713 142.529 135.159 142.774 134.562L142.865 134.327C142.906 134.215 142.944 134.102 142.979 133.988C142.989 133.957 142.998 133.926 143.007 133.895C143.117 133.521 143.195 133.14 143.24 132.755C143.25 132.664 143.26 132.573 143.267 132.481C143.284 132.255 143.291 132.027 143.286 131.8C143.284 131.717 143.28 131.635 143.275 131.553C143.257 131.245 143.218 130.938 143.158 130.633C142.897 129.314 142.255 128.101 141.312 127.15C140.369 126.199 139.166 125.552 137.858 125.29C137.738 125.266 137.617 125.247 137.497 125.229C136.832 125.134 136.159 125.138 135.5 125.242C135.366 125.263 135.234 125.287 135.102 125.316C134.925 125.355 134.749 125.403 134.575 125.456C134.446 125.495 134.319 125.538 134.193 125.585C134.115 125.614 134.037 125.645 133.96 125.677C133.883 125.709 133.807 125.742 133.731 125.777C133.524 125.873 133.322 125.979 133.126 126.095C133.037 126.148 132.948 126.204 132.861 126.261C132.163 126.719 131.553 127.304 131.064 127.99C131.019 128.053 130.975 128.117 130.932 128.182C130.84 128.321 130.752 128.464 130.67 128.609C130.13 129.573 129.83 130.656 129.798 131.766C129.797 131.83 129.795 131.895 129.795 131.959C129.795 132.072 129.799 132.185 129.804 132.297C129.805 132.31 129.806 132.323 129.807 132.336C129.82 132.575 129.847 132.812 129.884 133.047C129.937 133.376 130.012 133.7 130.112 134.017C130.167 134.192 130.229 134.364 130.298 134.534C130.594 135.264 131.016 135.941 131.55 136.533C131.622 136.613 131.695 136.691 131.771 136.768C132.404 137.405 133.15 137.904 133.96 138.242C134.577 138.5 135.232 138.665 135.904 138.729C136.115 138.75 136.328 138.76 136.542 138.76Z"/>
<path d="M150.107 120.483C150.104 120.482 150.099 120.48 150.092 120.478C150.098 120.479 150.102 120.481 150.105 120.482C150.107 120.483 150.11 120.483 150.11 120.483L150.112 120.484C150.112 120.484 150.109 120.484 150.107 120.483Z"/>
<path d="M136.542 138.76C137.876 138.76 139.18 138.361 140.29 137.613L140.494 137.47C140.987 137.11 141.427 136.686 141.804 136.212C142.201 135.713 142.529 135.159 142.774 134.562L142.865 134.327C142.906 134.215 142.944 134.102 142.979 133.988C142.989 133.957 142.998 133.926 143.007 133.895C143.117 133.521 143.195 133.14 143.24 132.755C143.25 132.664 143.26 132.573 143.267 132.481C143.284 132.255 143.291 132.027 143.286 131.8C143.284 131.717 143.28 131.635 143.275 131.553C143.257 131.245 143.218 130.938 143.158 130.633C142.897 129.314 142.255 128.101 141.312 127.15C140.369 126.199 139.166 125.552 137.858 125.29C137.738 125.266 137.617 125.247 137.497 125.229C136.832 125.134 136.159 125.138 135.5 125.242C135.366 125.263 135.234 125.287 135.102 125.316C134.925 125.355 134.749 125.403 134.575 125.456C134.446 125.495 134.319 125.538 134.193 125.585C134.115 125.614 134.037 125.645 133.96 125.677C133.883 125.709 133.807 125.742 133.731 125.777C133.524 125.873 133.322 125.979 133.126 126.095C133.037 126.148 132.948 126.204 132.861 126.261C132.163 126.719 131.553 127.304 131.064 127.99C131.019 128.053 130.975 128.117 130.932 128.182C130.84 128.321 130.752 128.464 130.67 128.609C130.13 129.573 129.83 130.656 129.798 131.766C129.797 131.83 129.795 131.895 129.795 131.959C129.795 132.072 129.799 132.185 129.804 132.297C129.805 132.31 129.806 132.323 129.807 132.336C129.82 132.575 129.847 132.812 129.884 133.047C129.937 133.376 130.012 133.7 130.112 134.017C130.167 134.192 130.229 134.364 130.298 134.534C130.594 135.264 131.016 135.941 131.55 136.533C131.622 136.613 131.695 136.691 131.771 136.768C132.404 137.405 133.15 137.904 133.96 138.242C134.577 138.5 135.232 138.665 135.904 138.729C136.115 138.75 136.328 138.76 136.542 138.76Z"/>
</mask>
<path fill-rule="evenodd" clip-rule="evenodd" d="M134.952 150L134.706 149.988C134.135 149.935 133.592 149.701 133.156 149.316C132.658 148.876 132.333 148.268 132.244 147.604L132.242 147.59L131.918 145.413L131.917 145.414C131.879 145.121 131.781 144.838 131.625 144.586C131.464 144.324 131.246 144.101 130.99 143.934L129.336 142.837C129.085 142.667 128.8 142.558 128.505 142.517C128.208 142.475 127.904 142.502 127.616 142.596L127.615 142.595L127.61 142.597L127.605 142.598L127.606 142.599L125.159 143.384L124.938 143.444C124.418 143.564 123.872 143.526 123.37 143.334C122.795 143.114 122.31 142.703 121.995 142.168L120.487 139.615C120.14 139.021 120.014 138.321 120.133 137.642C120.152 137.535 120.18 137.424 120.214 137.309C120.216 137.302 120.217 137.299 120.224 137.276C120.245 137.21 120.267 137.145 120.292 137.084C120.295 137.075 120.298 137.068 120.309 137.041C120.33 136.991 120.355 136.936 120.385 136.874C120.401 136.841 120.42 136.805 120.447 136.756C120.471 136.712 120.485 136.687 120.498 136.665C120.518 136.63 120.543 136.591 120.576 136.542C120.62 136.476 120.625 136.465 120.64 136.444C120.645 136.437 120.649 136.431 120.653 136.426C120.792 136.236 120.957 136.063 121.139 135.912L122.625 134.71L122.627 134.709C122.878 134.506 123.076 134.25 123.21 133.965C123.346 133.679 123.416 133.365 123.416 133.047L123.416 130.736C123.411 130.422 123.34 130.114 123.207 129.833C123.075 129.554 122.883 129.301 122.64 129.098L122.634 129.093L122.628 129.089L121.09 127.838L121.084 127.833C120.543 127.399 120.173 126.78 120.047 126.091C119.922 125.402 120.049 124.69 120.403 124.089L120.405 124.086L121.862 121.598L121.867 121.59C122.151 121.094 122.579 120.703 123.088 120.467L123.312 120.375C123.387 120.348 123.465 120.324 123.543 120.304L123.752 120.259C123.766 120.256 123.769 120.256 123.821 120.248L123.968 120.23C124.032 120.224 124.028 120.225 124.044 120.224C124.185 120.214 124.324 120.215 124.462 120.228L124.532 120.235C124.59 120.242 124.642 120.249 124.691 120.258C124.715 120.262 124.732 120.266 124.746 120.269C124.822 120.284 124.886 120.299 124.944 120.314L125.209 120.402L127.397 121.25L127.398 121.249C127.65 121.356 127.921 121.414 128.197 121.414C128.494 121.414 128.786 121.349 129.054 121.226L129.095 121.207L129.133 121.185L130.887 120.178L130.911 120.164C131.179 120 131.409 119.778 131.583 119.515L131.703 119.311C131.733 119.252 131.759 119.193 131.782 119.137L131.783 119.136C131.844 118.985 131.891 118.822 131.917 118.649L132.268 116.405L132.27 116.394C132.366 115.728 132.694 115.121 133.195 114.683C133.258 114.627 133.332 114.571 133.421 114.508C133.457 114.483 133.497 114.455 133.547 114.424C133.605 114.388 133.601 114.39 133.617 114.381L133.756 114.305C133.769 114.298 133.781 114.292 133.79 114.287C133.794 114.285 133.799 114.283 133.802 114.281C133.806 114.279 133.809 114.277 133.812 114.275C133.82 114.271 133.825 114.27 133.825 114.27C133.894 114.237 133.964 114.207 134.036 114.18L134.253 114.107L134.31 114.092L134.484 114.052C134.544 114.04 134.601 114.031 134.655 114.024L134.667 114.023C134.738 114.015 134.803 114.008 134.865 114.005L135.019 114L137.886 114L138.1 114.008C138.109 114.009 138.119 114.01 138.129 114.011L138.147 114.013C138.155 114.014 138.165 114.014 138.176 114.016C138.238 114.022 138.294 114.029 138.345 114.037C138.367 114.041 138.384 114.044 138.446 114.057C138.493 114.066 138.533 114.075 138.569 114.084C138.603 114.092 138.632 114.1 138.659 114.107C138.7 114.119 138.743 114.132 138.786 114.146C138.83 114.161 138.86 114.172 138.885 114.182C138.909 114.191 138.931 114.2 138.993 114.227C139.065 114.258 139.071 114.26 139.091 114.27C139.114 114.28 139.134 114.291 139.194 114.322L139.297 114.377C139.36 114.413 139.417 114.45 139.471 114.487L139.685 114.649L139.845 114.794C139.845 114.794 139.849 114.798 139.861 114.811C139.868 114.818 139.872 114.823 139.882 114.834L139.914 114.867C139.967 114.923 139.984 114.94 140.002 114.961C140.001 114.959 140.003 114.962 140.013 114.975C140.016 114.978 140.018 114.981 140.021 114.985C140.024 114.989 140.028 114.993 140.032 114.998C140.039 115.007 140.049 115.02 140.06 115.033C140.1 115.082 140.124 115.114 140.145 115.143L140.202 115.223C140.225 115.257 140.248 115.292 140.27 115.327L140.324 115.419L140.382 115.528C140.408 115.579 140.421 115.603 140.432 115.627L140.472 115.724L140.52 115.837L140.588 116.049L140.65 116.309L141.079 118.546C141.115 118.759 141.183 118.967 141.286 119.161L141.298 119.185L141.313 119.208L141.374 119.309L141.388 119.334L141.405 119.358L141.547 119.543C141.693 119.711 141.865 119.851 142.055 119.962L143.945 121.104C144.144 121.226 144.363 121.312 144.59 121.356L144.823 121.388L145.057 121.392C145.282 121.382 145.506 121.334 145.717 121.248L147.887 120.397L148.018 120.349C148.031 120.345 148.049 120.34 148.07 120.333L148.176 120.302L148.253 120.281L148.393 120.251C148.451 120.24 148.514 120.231 148.584 120.223C148.599 120.221 148.612 120.219 148.622 120.218L148.627 120.218C148.779 120.203 148.932 120.199 149.084 120.21L149.085 120.211L149.088 120.211C149.092 120.211 149.095 120.212 149.1 120.213C149.105 120.213 149.111 120.214 149.117 120.215C149.129 120.216 149.145 120.218 149.163 120.22L149.31 120.236C149.484 120.263 149.653 120.306 149.813 120.363L150.02 120.448L150.04 120.457C150.084 120.478 150.131 120.501 150.178 120.527L150.338 120.622C150.398 120.66 150.422 120.675 150.446 120.691L150.518 120.745L150.634 120.834C150.653 120.849 150.664 120.86 150.719 120.91L150.803 120.987L150.896 121.085C150.94 121.133 150.952 121.144 150.966 121.161L151.053 121.271L151.104 121.338C151.174 121.434 151.232 121.523 151.28 121.607L152.622 124.097L152.629 124.112L152.732 124.313L152.74 124.333C152.743 124.341 152.746 124.347 152.75 124.358C152.755 124.368 152.76 124.38 152.765 124.394C152.79 124.451 152.808 124.494 152.822 124.532C152.829 124.552 152.832 124.561 152.852 124.623C152.874 124.689 152.884 124.721 152.893 124.752C152.898 124.769 152.897 124.77 152.912 124.83C152.926 124.886 152.938 124.94 152.948 124.991C152.952 125.014 152.957 125.037 152.96 125.061C152.968 125.106 152.974 125.153 152.98 125.202C152.985 125.248 152.988 125.272 152.99 125.293L152.997 125.455C152.997 125.478 152.999 125.497 153 125.511C153 125.517 153 125.523 153 125.527L153 125.537C153 125.609 152.998 125.681 152.993 125.75C152.987 125.828 152.977 125.909 152.963 125.993C152.859 126.641 152.54 127.232 152.059 127.67L152.045 127.682L150.144 129.479C149.924 129.685 149.747 129.935 149.627 130.214C149.538 130.424 149.481 130.646 149.46 130.873L149.452 131.101L149.452 132.833L149.453 132.85C149.462 133.145 149.532 133.434 149.655 133.699C149.779 133.966 149.956 134.205 150.174 134.402L150.189 134.416L150.205 134.429L152.018 135.932C152.093 135.997 152.169 136.075 152.254 136.17L152.35 136.276C152.371 136.302 152.388 136.327 152.437 136.393C152.447 136.406 152.455 136.417 152.462 136.427C152.471 136.438 152.475 136.442 152.481 136.45L152.493 136.467C152.509 136.491 152.521 136.51 152.564 136.58L152.623 136.676L152.675 136.776C152.704 136.832 152.722 136.868 152.737 136.9C152.747 136.923 152.759 136.95 152.776 136.99C152.797 137.041 152.814 137.085 152.829 137.125C152.837 137.149 152.846 137.176 152.863 137.229C152.878 137.278 152.889 137.316 152.898 137.349C152.928 137.461 152.951 137.562 152.965 137.655C153.07 138.33 152.933 139.019 152.58 139.6L152.575 139.607L151.037 142.192L151.038 142.193C150.898 142.426 150.72 142.637 150.513 142.822L150.512 142.823C150.459 142.871 150.438 142.889 150.417 142.907C150.4 142.921 150.388 142.929 150.334 142.97C150.283 143.009 150.249 143.033 150.22 143.053L150.071 143.147C150.057 143.155 150.058 143.155 150.054 143.157L149.883 143.249C149.88 143.251 149.876 143.251 149.873 143.253C149.865 143.256 149.855 143.261 149.842 143.267C149.789 143.291 149.734 143.315 149.678 143.336L149.647 143.349L149.649 143.349L149.536 143.387C148.91 143.587 148.233 143.551 147.631 143.285L147.588 143.268L145.902 142.614L145.902 142.616C145.646 142.506 145.369 142.445 145.088 142.445L144.861 142.458C144.635 142.483 144.415 142.546 144.21 142.643L144.186 142.654L144.163 142.667L142.018 143.823L142.017 143.822L142.005 143.829C141.708 143.994 141.455 144.232 141.269 144.52C141.088 144.8 140.976 145.12 140.944 145.454L140.728 147.48L140.727 147.486C140.703 147.722 140.651 147.952 140.572 148.17C140.568 148.181 140.563 148.194 140.558 148.207C140.534 148.271 140.506 148.335 140.477 148.397L140.464 148.425C140.435 148.486 140.402 148.548 140.367 148.609C140.363 148.616 140.365 148.612 140.35 148.637C140.21 148.875 140.034 149.092 139.83 149.279C139.386 149.684 138.826 149.931 138.237 149.987L137.983 150L134.952 150ZM136.542 138.76C137.876 138.76 139.18 138.361 140.29 137.613L140.494 137.47C140.987 137.11 141.427 136.686 141.804 136.212C142.201 135.713 142.529 135.159 142.774 134.562L142.865 134.327C142.906 134.215 142.944 134.102 142.979 133.988C142.989 133.957 142.998 133.926 143.007 133.895C143.117 133.521 143.195 133.14 143.24 132.755C143.25 132.664 143.26 132.573 143.267 132.481C143.284 132.255 143.291 132.027 143.286 131.8C143.284 131.717 143.28 131.635 143.275 131.553C143.257 131.245 143.218 130.938 143.158 130.633C142.897 129.314 142.255 128.101 141.312 127.15C140.369 126.199 139.166 125.552 137.858 125.29C137.738 125.266 137.617 125.247 137.497 125.229C136.832 125.134 136.159 125.138 135.5 125.242C135.366 125.263 135.234 125.287 135.102 125.316C134.925 125.355 134.749 125.403 134.575 125.456C134.446 125.495 134.319 125.538 134.193 125.585C134.115 125.614 134.037 125.645 133.96 125.677C133.883 125.709 133.807 125.742 133.731 125.777C133.524 125.873 133.322 125.979 133.126 126.095C133.037 126.148 132.948 126.204 132.861 126.261C132.163 126.719 131.553 127.304 131.064 127.99C131.019 128.053 130.975 128.117 130.932 128.182C130.84 128.321 130.752 128.464 130.67 128.609C130.13 129.573 129.83 130.656 129.798 131.766C129.797 131.83 129.795 131.895 129.795 131.959C129.795 132.072 129.799 132.185 129.804 132.297C129.805 132.31 129.806 132.323 129.807 132.336C129.82 132.575 129.847 132.812 129.884 133.047C129.937 133.376 130.012 133.7 130.112 134.017C130.167 134.192 130.229 134.364 130.298 134.534C130.594 135.264 131.016 135.941 131.55 136.533C131.622 136.613 131.695 136.691 131.771 136.768C132.404 137.405 133.15 137.904 133.96 138.242C134.577 138.5 135.232 138.665 135.904 138.729C136.115 138.75 136.328 138.76 136.542 138.76Z" fill="#DDDDDD"/>
<path d="M150.107 120.483C150.104 120.482 150.099 120.48 150.092 120.478C150.098 120.479 150.102 120.481 150.105 120.482C150.107 120.483 150.11 120.483 150.11 120.483L150.112 120.484C150.112 120.484 150.109 120.484 150.107 120.483Z" fill="#DDDDDD"/>
<path d="M136.542 138.76C137.876 138.76 139.18 138.361 140.29 137.613L140.494 137.47C140.987 137.11 141.427 136.686 141.804 136.212C142.201 135.713 142.529 135.159 142.774 134.562L142.865 134.327C142.906 134.215 142.944 134.102 142.979 133.988C142.989 133.957 142.998 133.926 143.007 133.895C143.117 133.521 143.195 133.14 143.24 132.755C143.25 132.664 143.26 132.573 143.267 132.481C143.284 132.255 143.291 132.027 143.286 131.8C143.284 131.717 143.28 131.635 143.275 131.553C143.257 131.245 143.218 130.938 143.158 130.633C142.897 129.314 142.255 128.101 141.312 127.15C140.369 126.199 139.166 125.552 137.858 125.29C137.738 125.266 137.617 125.247 137.497 125.229C136.832 125.134 136.159 125.138 135.5 125.242C135.366 125.263 135.234 125.287 135.102 125.316C134.925 125.355 134.749 125.403 134.575 125.456C134.446 125.495 134.319 125.538 134.193 125.585C134.115 125.614 134.037 125.645 133.96 125.677C133.883 125.709 133.807 125.742 133.731 125.777C133.524 125.873 133.322 125.979 133.126 126.095C133.037 126.148 132.948 126.204 132.861 126.261C132.163 126.719 131.553 127.304 131.064 127.99C131.019 128.053 130.975 128.117 130.932 128.182C130.84 128.321 130.752 128.464 130.67 128.609C130.13 129.573 129.83 130.656 129.798 131.766C129.797 131.83 129.795 131.895 129.795 131.959C129.795 132.072 129.799 132.185 129.804 132.297C129.805 132.31 129.806 132.323 129.807 132.336C129.82 132.575 129.847 132.812 129.884 133.047C129.937 133.376 130.012 133.7 130.112 134.017C130.167 134.192 130.229 134.364 130.298 134.534C130.594 135.264 131.016 135.941 131.55 136.533C131.622 136.613 131.695 136.691 131.771 136.768C132.404 137.405 133.15 137.904 133.96 138.242C134.577 138.5 135.232 138.665 135.904 138.729C136.115 138.75 136.328 138.76 136.542 138.76Z" fill="#393939"/>
<path fill-rule="evenodd" clip-rule="evenodd" d="M134.952 150L134.706 149.988C134.135 149.935 133.592 149.701 133.156 149.316C132.658 148.876 132.333 148.268 132.244 147.604L132.242 147.59L131.918 145.413L131.917 145.414C131.879 145.121 131.781 144.838 131.625 144.586C131.464 144.324 131.246 144.101 130.99 143.934L129.336 142.837C129.085 142.667 128.8 142.558 128.505 142.517C128.208 142.475 127.904 142.502 127.616 142.596L127.615 142.595L127.61 142.597L127.605 142.598L127.606 142.599L125.159 143.384L124.938 143.444C124.418 143.564 123.872 143.526 123.37 143.334C122.795 143.114 122.31 142.703 121.995 142.168L120.487 139.615C120.14 139.021 120.014 138.321 120.133 137.642C120.152 137.535 120.18 137.424 120.214 137.309C120.216 137.302 120.217 137.299 120.224 137.276C120.245 137.21 120.267 137.145 120.292 137.084C120.295 137.075 120.298 137.068 120.309 137.041C120.33 136.991 120.355 136.936 120.385 136.874C120.401 136.841 120.42 136.805 120.447 136.756C120.471 136.712 120.485 136.687 120.498 136.665C120.518 136.63 120.543 136.591 120.576 136.542C120.62 136.476 120.625 136.465 120.64 136.444C120.645 136.437 120.649 136.431 120.653 136.426C120.792 136.236 120.957 136.063 121.139 135.912L122.625 134.71L122.627 134.709C122.878 134.506 123.076 134.25 123.21 133.965C123.346 133.679 123.416 133.365 123.416 133.047L123.416 130.736C123.411 130.422 123.34 130.114 123.207 129.833C123.075 129.554 122.883 129.301 122.64 129.098L122.634 129.093L122.628 129.089L121.09 127.838L121.084 127.833C120.543 127.399 120.173 126.78 120.047 126.091C119.922 125.402 120.049 124.69 120.403 124.089L120.405 124.086L121.862 121.598L121.867 121.59C122.151 121.094 122.579 120.703 123.088 120.467L123.312 120.375C123.387 120.348 123.465 120.324 123.543 120.304L123.752 120.259C123.766 120.256 123.769 120.256 123.821 120.248L123.968 120.23C124.032 120.224 124.028 120.225 124.044 120.224C124.185 120.214 124.324 120.215 124.462 120.228L124.532 120.235C124.59 120.242 124.642 120.249 124.691 120.258C124.715 120.262 124.732 120.266 124.746 120.269C124.822 120.284 124.886 120.299 124.944 120.314L125.209 120.402L127.397 121.25L127.398 121.249C127.65 121.356 127.921 121.414 128.197 121.414C128.494 121.414 128.786 121.349 129.054 121.226L129.095 121.207L129.133 121.185L130.887 120.178L130.911 120.164C131.179 120 131.409 119.778 131.583 119.515L131.703 119.311C131.733 119.252 131.759 119.193 131.782 119.137L131.783 119.136C131.844 118.985 131.891 118.822 131.917 118.649L132.268 116.405L132.27 116.394C132.366 115.728 132.694 115.121 133.195 114.683C133.258 114.627 133.332 114.571 133.421 114.508C133.457 114.483 133.497 114.455 133.547 114.424C133.605 114.388 133.601 114.39 133.617 114.381L133.756 114.305C133.769 114.298 133.781 114.292 133.79 114.287C133.794 114.285 133.799 114.283 133.802 114.281C133.806 114.279 133.809 114.277 133.812 114.275C133.82 114.271 133.825 114.27 133.825 114.27C133.894 114.237 133.964 114.207 134.036 114.18L134.253 114.107L134.31 114.092L134.484 114.052C134.544 114.04 134.601 114.031 134.655 114.024L134.667 114.023C134.738 114.015 134.803 114.008 134.865 114.005L135.019 114L137.886 114L138.1 114.008C138.109 114.009 138.119 114.01 138.129 114.011L138.147 114.013C138.155 114.014 138.165 114.014 138.176 114.016C138.238 114.022 138.294 114.029 138.345 114.037C138.367 114.041 138.384 114.044 138.446 114.057C138.493 114.066 138.533 114.075 138.569 114.084C138.603 114.092 138.632 114.1 138.659 114.107C138.7 114.119 138.743 114.132 138.786 114.146C138.83 114.161 138.86 114.172 138.885 114.182C138.909 114.191 138.931 114.2 138.993 114.227C139.065 114.258 139.071 114.26 139.091 114.27C139.114 114.28 139.134 114.291 139.194 114.322L139.297 114.377C139.36 114.413 139.417 114.45 139.471 114.487L139.685 114.649L139.845 114.794C139.845 114.794 139.849 114.798 139.861 114.811C139.868 114.818 139.872 114.823 139.882 114.834L139.914 114.867C139.967 114.923 139.984 114.94 140.002 114.961C140.001 114.959 140.003 114.962 140.013 114.975C140.016 114.978 140.018 114.981 140.021 114.985C140.024 114.989 140.028 114.993 140.032 114.998C140.039 115.007 140.049 115.02 140.06 115.033C140.1 115.082 140.124 115.114 140.145 115.143L140.202 115.223C140.225 115.257 140.248 115.292 140.27 115.327L140.324 115.419L140.382 115.528C140.408 115.579 140.421 115.603 140.432 115.627L140.472 115.724L140.52 115.837L140.588 116.049L140.65 116.309L141.079 118.546C141.115 118.759 141.183 118.967 141.286 119.161L141.298 119.185L141.313 119.208L141.374 119.309L141.388 119.334L141.405 119.358L141.547 119.543C141.693 119.711 141.865 119.851 142.055 119.962L143.945 121.104C144.144 121.226 144.363 121.312 144.59 121.356L144.823 121.388L145.057 121.392C145.282 121.382 145.506 121.334 145.717 121.248L147.887 120.397L148.018 120.349C148.031 120.345 148.049 120.34 148.07 120.333L148.176 120.302L148.253 120.281L148.393 120.251C148.451 120.24 148.514 120.231 148.584 120.223C148.599 120.221 148.612 120.219 148.622 120.218L148.627 120.218C148.779 120.203 148.932 120.199 149.084 120.21L149.085 120.211L149.088 120.211C149.092 120.211 149.095 120.212 149.1 120.213C149.105 120.213 149.111 120.214 149.117 120.215C149.129 120.216 149.145 120.218 149.163 120.22L149.31 120.236C149.484 120.263 149.653 120.306 149.813 120.363L150.02 120.448L150.04 120.457C150.084 120.478 150.131 120.501 150.178 120.527L150.338 120.622C150.398 120.66 150.422 120.675 150.446 120.691L150.518 120.745L150.634 120.834C150.653 120.849 150.664 120.86 150.719 120.91L150.803 120.987L150.896 121.085C150.94 121.133 150.952 121.144 150.966 121.161L151.053 121.271L151.104 121.338C151.174 121.434 151.232 121.523 151.28 121.607L152.622 124.097L152.629 124.112L152.732 124.313L152.74 124.333C152.743 124.341 152.746 124.347 152.75 124.358C152.755 124.368 152.76 124.38 152.765 124.394C152.79 124.451 152.808 124.494 152.822 124.532C152.829 124.552 152.832 124.561 152.852 124.623C152.874 124.689 152.884 124.721 152.893 124.752C152.898 124.769 152.897 124.77 152.912 124.83C152.926 124.886 152.938 124.94 152.948 124.991C152.952 125.014 152.957 125.037 152.96 125.061C152.968 125.106 152.974 125.153 152.98 125.202C152.985 125.248 152.988 125.272 152.99 125.293L152.997 125.455C152.997 125.478 152.999 125.497 153 125.511C153 125.517 153 125.523 153 125.527L153 125.537C153 125.609 152.998 125.681 152.993 125.75C152.987 125.828 152.977 125.909 152.963 125.993C152.859 126.641 152.54 127.232 152.059 127.67L152.045 127.682L150.144 129.479C149.924 129.685 149.747 129.935 149.627 130.214C149.538 130.424 149.481 130.646 149.46 130.873L149.452 131.101L149.452 132.833L149.453 132.85C149.462 133.145 149.532 133.434 149.655 133.699C149.779 133.966 149.956 134.205 150.174 134.402L150.189 134.416L150.205 134.429L152.018 135.932C152.093 135.997 152.169 136.075 152.254 136.17L152.35 136.276C152.371 136.302 152.388 136.327 152.437 136.393C152.447 136.406 152.455 136.417 152.462 136.427C152.471 136.438 152.475 136.442 152.481 136.45L152.493 136.467C152.509 136.491 152.521 136.51 152.564 136.58L152.623 136.676L152.675 136.776C152.704 136.832 152.722 136.868 152.737 136.9C152.747 136.923 152.759 136.95 152.776 136.99C152.797 137.041 152.814 137.085 152.829 137.125C152.837 137.149 152.846 137.176 152.863 137.229C152.878 137.278 152.889 137.316 152.898 137.349C152.928 137.461 152.951 137.562 152.965 137.655C153.07 138.33 152.933 139.019 152.58 139.6L152.575 139.607L151.037 142.192L151.038 142.193C150.898 142.426 150.72 142.637 150.513 142.822L150.512 142.823C150.459 142.871 150.438 142.889 150.417 142.907C150.4 142.921 150.388 142.929 150.334 142.97C150.283 143.009 150.249 143.033 150.22 143.053L150.071 143.147C150.057 143.155 150.058 143.155 150.054 143.157L149.883 143.249C149.88 143.251 149.876 143.251 149.873 143.253C149.865 143.256 149.855 143.261 149.842 143.267C149.789 143.291 149.734 143.315 149.678 143.336L149.647 143.349L149.649 143.349L149.536 143.387C148.91 143.587 148.233 143.551 147.631 143.285L147.588 143.268L145.902 142.614L145.902 142.616C145.646 142.506 145.369 142.445 145.088 142.445L144.861 142.458C144.635 142.483 144.415 142.546 144.21 142.643L144.186 142.654L144.163 142.667L142.018 143.823L142.017 143.822L142.005 143.829C141.708 143.994 141.455 144.232 141.269 144.52C141.088 144.8 140.976 145.12 140.944 145.454L140.728 147.48L140.727 147.486C140.703 147.722 140.651 147.952 140.572 148.17C140.568 148.181 140.563 148.194 140.558 148.207C140.534 148.271 140.506 148.335 140.477 148.397L140.464 148.425C140.435 148.486 140.402 148.548 140.367 148.609C140.363 148.616 140.365 148.612 140.35 148.637C140.21 148.875 140.034 149.092 139.83 149.279C139.386 149.684 138.826 149.931 138.237 149.987L137.983 150L134.952 150ZM136.542 138.76C137.876 138.76 139.18 138.361 140.29 137.613L140.494 137.47C140.987 137.11 141.427 136.686 141.804 136.212C142.201 135.713 142.529 135.159 142.774 134.562L142.865 134.327C142.906 134.215 142.944 134.102 142.979 133.988C142.989 133.957 142.998 133.926 143.007 133.895C143.117 133.521 143.195 133.14 143.24 132.755C143.25 132.664 143.26 132.573 143.267 132.481C143.284 132.255 143.291 132.027 143.286 131.8C143.284 131.717 143.28 131.635 143.275 131.553C143.257 131.245 143.218 130.938 143.158 130.633C142.897 129.314 142.255 128.101 141.312 127.15C140.369 126.199 139.166 125.552 137.858 125.29C137.738 125.266 137.617 125.247 137.497 125.229C136.832 125.134 136.159 125.138 135.5 125.242C135.366 125.263 135.234 125.287 135.102 125.316C134.925 125.355 134.749 125.403 134.575 125.456C134.446 125.495 134.319 125.538 134.193 125.585C134.115 125.614 134.037 125.645 133.96 125.677C133.883 125.709 133.807 125.742 133.731 125.777C133.524 125.873 133.322 125.979 133.126 126.095C133.037 126.148 132.948 126.204 132.861 126.261C132.163 126.719 131.553 127.304 131.064 127.99C131.019 128.053 130.975 128.117 130.932 128.182C130.84 128.321 130.752 128.464 130.67 128.609C130.13 129.573 129.83 130.656 129.798 131.766C129.797 131.83 129.795 131.895 129.795 131.959C129.795 132.072 129.799 132.185 129.804 132.297C129.805 132.31 129.806 132.323 129.807 132.336C129.82 132.575 129.847 132.812 129.884 133.047C129.937 133.376 130.012 133.7 130.112 134.017C130.167 134.192 130.229 134.364 130.298 134.534C130.594 135.264 131.016 135.941 131.55 136.533C131.622 136.613 131.695 136.691 131.771 136.768C132.404 137.405 133.15 137.904 133.96 138.242C134.577 138.5 135.232 138.665 135.904 138.729C136.115 138.75 136.328 138.76 136.542 138.76Z" stroke="#393939" stroke-width="8" stroke-linejoin="bevel" mask="url(#path-3-outside-1_730_741)"/>
<path d="M150.107 120.483C150.104 120.482 150.099 120.48 150.092 120.478C150.098 120.479 150.102 120.481 150.105 120.482C150.107 120.483 150.11 120.483 150.11 120.483L150.112 120.484C150.112 120.484 150.109 120.484 150.107 120.483Z" stroke="#393939" stroke-width="8" stroke-linejoin="bevel" mask="url(#path-3-outside-1_730_741)"/>
<path d="M136.542 138.76C137.876 138.76 139.18 138.361 140.29 137.613L140.494 137.47C140.987 137.11 141.427 136.686 141.804 136.212C142.201 135.713 142.529 135.159 142.774 134.562L142.865 134.327C142.906 134.215 142.944 134.102 142.979 133.988C142.989 133.957 142.998 133.926 143.007 133.895C143.117 133.521 143.195 133.14 143.24 132.755C143.25 132.664 143.26 132.573 143.267 132.481C143.284 132.255 143.291 132.027 143.286 131.8C143.284 131.717 143.28 131.635 143.275 131.553C143.257 131.245 143.218 130.938 143.158 130.633C142.897 129.314 142.255 128.101 141.312 127.15C140.369 126.199 139.166 125.552 137.858 125.29C137.738 125.266 137.617 125.247 137.497 125.229C136.832 125.134 136.159 125.138 135.5 125.242C135.366 125.263 135.234 125.287 135.102 125.316C134.925 125.355 134.749 125.403 134.575 125.456C134.446 125.495 134.319 125.538 134.193 125.585C134.115 125.614 134.037 125.645 133.96 125.677C133.883 125.709 133.807 125.742 133.731 125.777C133.524 125.873 133.322 125.979 133.126 126.095C133.037 126.148 132.948 126.204 132.861 126.261C132.163 126.719 131.553 127.304 131.064 127.99C131.019 128.053 130.975 128.117 130.932 128.182C130.84 128.321 130.752 128.464 130.67 128.609C130.13 129.573 129.83 130.656 129.798 131.766C129.797 131.83 129.795 131.895 129.795 131.959C129.795 132.072 129.799 132.185 129.804 132.297C129.805 132.31 129.806 132.323 129.807 132.336C129.82 132.575 129.847 132.812 129.884 133.047C129.937 133.376 130.012 133.7 130.112 134.017C130.167 134.192 130.229 134.364 130.298 134.534C130.594 135.264 131.016 135.941 131.55 136.533C131.622 136.613 131.695 136.691 131.771 136.768C132.404 137.405 133.15 137.904 133.96 138.242C134.577 138.5 135.232 138.665 135.904 138.729C136.115 138.75 136.328 138.76 136.542 138.76Z" stroke="#393939" stroke-width="8" stroke-linejoin="bevel" mask="url(#path-3-outside-1_730_741)"/>
</svg>
