<svg width="192" height="192" viewBox="0 0 192 192" fill="none" xmlns="http://www.w3.org/2000/svg">
<rect width="192" height="192" rx="12" fill="#393939"/>
<rect width="192" height="192" rx="12" fill="#393939"/>
<path d="M95.9999 95.9999C90.2249 95.9999 85.2812 93.911 81.1687 89.7333C77.0562 85.5555 74.9999 80.5333 74.9999 74.6666C74.9999 68.7999 77.0562 63.7777 81.1687 59.5999C85.2812 55.4221 90.2249 53.3333 95.9999 53.3333C101.775 53.3333 106.719 55.4221 110.831 59.5999C114.944 63.7777 117 68.7999 117 74.6666C117 80.5333 114.944 85.5555 110.831 89.7333C106.719 93.911 101.775 95.9999 95.9999 95.9999ZM53.9999 138.667V123.733C53.9999 120.711 54.7655 117.933 56.2968 115.4C57.828 112.867 59.8624 110.933 62.3999 109.6C67.8249 106.844 73.3374 104.778 78.9374 103.4C84.5374 102.022 90.2249 101.333 95.9999 101.333C101.775 101.333 107.462 102.022 113.062 103.4C118.662 104.778 124.175 106.844 129.6 109.6C132.137 110.933 134.172 112.867 135.703 115.4C137.234 117.933 138 120.711 138 123.733V138.667H53.9999Z" fill="#DDDDDD"/>
<path fill-rule="evenodd" clip-rule="evenodd" d="M95.9999 95.9999C90.2249 95.9999 85.2812 93.911 81.1687 89.7333C77.0562 85.5555 74.9999 80.5333 74.9999 74.6666C74.9999 68.7999 77.0562 63.7777 81.1687 59.5999C85.2812 55.4221 90.2249 53.3333 95.9999 53.3333C101.775 53.3333 106.719 55.4221 110.831 59.5999C114.944 63.7777 117 68.7999 117 74.6666C117 80.5333 114.944 85.5555 110.831 89.7333C106.719 93.911 101.775 95.9999 95.9999 95.9999ZM53.9999 138.667V123.733C53.9999 120.711 54.7655 117.933 56.2968 115.4C57.828 112.867 59.8624 110.933 62.3999 109.6C67.8249 106.844 73.3374 104.778 78.9374 103.4C84.5374 102.022 90.2249 101.333 95.9999 101.333C101.775 101.333 107.462 102.022 113.062 103.4C118.662 104.778 124.175 106.844 129.6 109.6C132.137 110.933 134.172 112.867 135.703 115.4C137.234 117.933 138 120.711 138 123.733V138.667H53.9999Z" fill="#DDDDDD"/>
<path d="M101.923 130.718C102.139 131.95 101.897 133.242 101.269 134.21L96.9285 142.457C96.4605 143.178 95.6019 143.181 95.1312 142.463L90.7413 134.209C90.1076 133.242 89.8613 131.947 90.0759 130.71L93.5978 110.418H98.3625L101.923 130.718Z" fill="#393939"/>
<path d="M94.374 102.585C95.3733 101.803 96.6262 101.805 97.6244 102.589L99.7911 104.291C100.25 104.652 100.298 105.488 99.8852 105.932L98.5376 108.07H93.5741L92.1722 105.875C91.7596 105.43 91.8084 104.592 92.2678 104.232L94.374 102.585Z" fill="#393939"/>
</svg>
