<svg width="192" height="192" viewBox="0 0 192 192" fill="none" xmlns="http://www.w3.org/2000/svg">
<rect width="192" height="192" rx="12" fill="#393939"/>
<rect width="192" height="192" rx="12" fill="#393939"/>
<path d="M95.9999 95.9999C90.2249 95.9999 85.2812 93.911 81.1687 89.7333C77.0562 85.5555 74.9999 80.5333 74.9999 74.6666C74.9999 68.7999 77.0562 63.7777 81.1687 59.5999C85.2812 55.4221 90.2249 53.3333 95.9999 53.3333C101.775 53.3333 106.719 55.4221 110.831 59.5999C114.944 63.7777 117 68.7999 117 74.6666C117 80.5333 114.944 85.5555 110.831 89.7333C106.719 93.911 101.775 95.9999 95.9999 95.9999ZM53.9999 138.667V123.733C53.9999 120.711 54.7655 117.933 56.2968 115.4C57.828 112.867 59.8624 110.933 62.3999 109.6C67.8249 106.844 73.3374 104.778 78.9374 103.4C84.5374 102.022 90.2249 101.333 95.9999 101.333C101.775 101.333 107.462 102.022 113.062 103.4C118.662 104.778 124.175 106.844 129.6 109.6C132.137 110.933 134.172 112.867 135.703 115.4C137.234 117.933 138 120.711 138 123.733V138.667H53.9999Z" fill="#DDDDDD"/>
<path fill-rule="evenodd" clip-rule="evenodd" d="M95.9999 95.9999C90.2249 95.9999 85.2812 93.911 81.1687 89.7333C77.0562 85.5555 74.9999 80.5333 74.9999 74.6666C74.9999 68.7999 77.0562 63.7777 81.1687 59.5999C85.2812 55.4221 90.2249 53.3333 95.9999 53.3333C101.775 53.3333 106.719 55.4221 110.831 59.5999C114.944 63.7777 117 68.7999 117 74.6666C117 80.5333 114.944 85.5555 110.831 89.7333C106.719 93.911 101.775 95.9999 95.9999 95.9999ZM53.9999 138.667V123.733C53.9999 120.711 54.7655 117.933 56.2968 115.4C57.828 112.867 59.8624 110.933 62.3999 109.6C67.8249 106.844 73.3374 104.778 78.9374 103.4C84.5374 102.022 90.2249 101.333 95.9999 101.333C101.775 101.333 107.462 102.022 113.062 103.4C118.662 104.778 124.175 106.844 129.6 109.6C132.137 110.933 134.172 112.867 135.703 115.4C137.234 117.933 138 120.711 138 123.733V138.667H53.9999Z" fill="#DDDDDD"/>
<path d="M113.518 108.385L110.747 99.068C110.512 98.2773 109.48 98.1228 108.995 98.8056L99.3012 112.463C98.7332 113.263 99.4878 114.308 100.403 113.989L112.868 109.65C113.384 109.47 113.673 108.907 113.518 108.385Z" fill="#393939"/>
<path d="M78.5278 108.385L81.2991 99.0675C81.5343 98.2768 82.5664 98.1223 83.0511 98.8051L92.7447 112.462C93.3127 113.262 92.5581 114.308 91.6425 113.989L79.1775 109.649C78.6615 109.469 78.3725 108.907 78.5278 108.385Z" fill="#393939"/>
</svg>
