<svg width="192" height="192" viewBox="0 0 192 192" fill="none" xmlns="http://www.w3.org/2000/svg">
<rect width="192" height="192" rx="12" fill="#393939"/>
<rect width="192" height="192" rx="12" fill="#393939"/>
<path d="M95.9999 95.9999C90.2249 95.9999 85.2812 93.911 81.1687 89.7333C77.0562 85.5555 74.9999 80.5333 74.9999 74.6666C74.9999 68.7999 77.0562 63.7777 81.1687 59.5999C85.2812 55.4221 90.2249 53.3333 95.9999 53.3333C101.775 53.3333 106.719 55.4221 110.831 59.5999C114.944 63.7777 117 68.7999 117 74.6666C117 80.5333 114.944 85.5555 110.831 89.7333C106.719 93.911 101.775 95.9999 95.9999 95.9999ZM53.9999 138.667V123.733C53.9999 120.711 54.7655 117.933 56.2968 115.4C57.828 112.867 59.8624 110.933 62.3999 109.6C67.8249 106.844 73.3374 104.778 78.9374 103.4C84.5374 102.022 90.2249 101.333 95.9999 101.333C101.775 101.333 107.462 102.022 113.062 103.4C118.662 104.778 124.175 106.844 129.6 109.6C132.137 110.933 134.172 112.867 135.703 115.4C137.234 117.933 138 120.711 138 123.733V138.667H53.9999Z" fill="#DDDDDD"/>
<path fill-rule="evenodd" clip-rule="evenodd" d="M95.9999 95.9999C90.2249 95.9999 85.2812 93.911 81.1687 89.7333C77.0562 85.5555 74.9999 80.5333 74.9999 74.6666C74.9999 68.7999 77.0562 63.7777 81.1687 59.5999C85.2812 55.4221 90.2249 53.3333 95.9999 53.3333C101.775 53.3333 106.719 55.4221 110.831 59.5999C114.944 63.7777 117 68.7999 117 74.6666C117 80.5333 114.944 85.5555 110.831 89.7333C106.719 93.911 101.775 95.9999 95.9999 95.9999ZM53.9999 138.667V123.733C53.9999 120.711 54.7655 117.933 56.2968 115.4C57.828 112.867 59.8624 110.933 62.3999 109.6C67.8249 106.844 73.3374 104.778 78.9374 103.4C84.5374 102.022 90.2249 101.333 95.9999 101.333C101.775 101.333 107.462 102.022 113.062 103.4C118.662 104.778 124.175 106.844 129.6 109.6C132.137 110.933 134.172 112.867 135.703 115.4C137.234 117.933 138 120.711 138 123.733V138.667H53.9999Z" fill="#DDDDDD"/>
<mask id="mask0_701_529" style="mask-type:alpha" maskUnits="userSpaceOnUse" x="74" y="53" width="44" height="44">
<rect x="74" y="53" width="44" height="44" fill="#D9D9D9"/>
</mask>
<g mask="url(#mask0_701_529)">
<path d="M83.778 83.1667C82.5557 83.1667 81.4533 82.7644 80.4706 81.9599C79.4876 81.155 78.8689 80.1212 78.6144 78.8583L77.1935 72.014L75.1769 72.1818L74.917 69.0958C77.443 68.8615 79.4979 68.7037 81.0816 68.6224C82.6653 68.5408 84.109 68.5 85.4128 68.5C87.3989 68.5 88.9981 68.5866 90.2102 68.7599C91.422 68.9328 92.466 69.2384 93.342 69.6765C93.7902 69.9106 94.2359 70.0787 94.679 70.1807C95.122 70.2825 95.5625 70.3333 96.0003 70.3333C96.418 70.3333 96.8331 70.2825 97.2456 70.1807C97.6581 70.0787 98.0783 69.9259 98.506 69.7224C99.4123 69.2842 100.512 68.971 101.806 68.7828C103.099 68.5943 104.831 68.5 107 68.5C108.385 68.5 109.878 68.5458 111.477 68.6375C113.076 68.7292 114.945 68.8667 117.084 69.05L116.824 72.0599L114.853 71.9224L113.386 78.9042C113.132 80.167 112.521 81.1932 111.553 81.9828C110.586 82.772 109.491 83.1667 108.269 83.1667H104.128C102.906 83.1667 101.821 82.7821 100.874 82.013C99.9266 81.2443 99.3104 80.2691 99.0253 79.0875L97.6962 73.5724H94.381L93.0212 79.0875C92.7257 80.2996 92.1043 81.2825 91.1571 82.036C90.2099 82.7898 89.1304 83.1667 87.9185 83.1667H83.778ZM81.578 78.2474C81.7106 78.7974 81.9755 79.2455 82.3727 79.5917C82.7699 79.9379 83.2231 80.111 83.7321 80.111H87.8727C88.4022 80.111 88.8656 79.9455 89.2628 79.6146C89.66 79.2837 89.9147 78.8686 90.0269 78.3693L91.5696 72.2125C90.6633 71.9986 89.6449 71.8432 88.5144 71.7464C87.3838 71.6498 86.35 71.6015 85.4128 71.6015C84.6489 71.6015 83.8113 71.6142 82.8998 71.6396C81.988 71.6649 81.1502 71.7082 80.3863 71.7693L81.578 78.2474ZM101.974 78.339C102.086 78.8585 102.341 79.2837 102.738 79.6146C103.135 79.9455 103.598 80.111 104.128 80.111H108.269C108.778 80.111 109.236 79.9379 109.644 79.5917C110.051 79.2455 110.311 78.7974 110.423 78.2474L111.706 71.7235C111.013 71.6727 110.229 71.6397 109.353 71.6245C108.477 71.6092 107.693 71.6015 107 71.6015C106.002 71.6015 104.899 71.6498 103.693 71.7464C102.486 71.8432 101.398 71.9986 100.431 72.2125L101.974 78.339Z" fill="#393939"/>
</g>
</svg>
