<svg width="24" height="24" viewBox="0 0 24 24" fill="none" xmlns="http://www.w3.org/2000/svg">
<path d="M7.74707 17.626C7.74686 16.8677 7.13234 16.2531 6.37402 16.2529C5.61552 16.2529 5.00021 16.8675 5 17.626C5 18.3846 5.61539 19 6.37402 19V20L6.13086 19.9873C4.934 19.8657 4 18.8549 4 17.626C4.00021 16.3152 5.06324 15.2529 6.37402 15.2529C7.68463 15.2531 8.74686 16.3154 8.74707 17.626C8.74707 18.9368 7.68476 19.9998 6.37402 20V19C7.13247 18.9998 7.74707 18.3845 7.74707 17.626ZM13.374 17.626C13.3738 16.8675 12.7585 16.2529 12 16.2529C11.2415 16.2529 10.6262 16.8675 10.626 17.626C10.626 18.3846 11.2414 19 12 19V20L11.7568 19.9873C10.5602 19.8655 9.62598 18.8548 9.62598 17.626C9.62619 16.3152 10.6892 15.2529 12 15.2529C13.3108 15.2529 14.3738 16.3152 14.374 17.626L14.3613 17.8691C14.2397 19.066 13.229 20 12 20V19C12.7586 19 13.374 18.3846 13.374 17.626ZM19 17.626C18.9998 16.8675 18.3845 16.2529 17.626 16.2529C16.8677 16.2531 16.2531 16.8677 16.2529 17.626C16.2529 18.3845 16.8675 18.9998 17.626 19V20L17.3838 19.9873C16.2667 19.8739 15.3781 18.9863 15.2646 17.8691L15.2529 17.626C15.2531 16.3154 16.3154 15.2531 17.626 15.2529C18.9368 15.2529 19.9998 16.3152 20 17.626L19.9873 17.8691C19.8657 19.066 18.8549 20 17.626 20V19C18.3846 19 19 18.3846 19 17.626ZM7.74707 12C7.74707 11.2415 7.13247 10.6262 6.37402 10.626C5.61539 10.626 5 11.2414 5 12C5 12.7586 5.61539 13.374 6.37402 13.374C7.13247 13.3738 7.74707 12.7585 7.74707 12ZM13.374 12C13.374 11.2414 12.7586 10.626 12 10.626C11.2414 10.626 10.626 11.2414 10.626 12C10.626 12.7586 11.2414 13.374 12 13.374C12.7586 13.374 13.374 12.7586 13.374 12ZM19 12C19 11.2414 18.3846 10.626 17.626 10.626C16.8675 10.6262 16.2529 11.2415 16.2529 12C16.2529 12.7585 16.8675 13.3738 17.626 13.374C18.3846 13.374 19 12.7586 19 12ZM7.74707 6.37402C7.74707 5.61552 7.13247 5.00021 6.37402 5C5.61539 5 5 5.61539 5 6.37402C5.00021 7.13247 5.61552 7.74707 6.37402 7.74707C7.13234 7.74686 7.74686 7.13234 7.74707 6.37402ZM13.374 6.37402C13.374 5.61539 12.7586 5 12 5C11.2414 5 10.626 5.61539 10.626 6.37402C10.6262 7.13247 11.2415 7.74707 12 7.74707C12.7585 7.74707 13.3738 7.13247 13.374 6.37402ZM19 6.37402C19 5.61539 18.3846 5 17.626 5C16.8675 5.00021 16.2529 5.61552 16.2529 6.37402C16.2531 7.13234 16.8677 7.74686 17.626 7.74707C18.3845 7.74707 18.9998 7.13247 19 6.37402ZM8.73535 12.2432C8.61361 13.4397 7.60268 14.3738 6.37402 14.374C5.14521 14.374 4.13449 13.4398 4.0127 12.2432L4 12C4 10.6891 5.06311 9.62598 6.37402 9.62598C7.68476 9.62619 8.74707 10.6892 8.74707 12L8.73535 12.2432ZM14.3613 12.2432C14.2396 13.4399 13.2288 14.374 12 14.374C10.7712 14.374 9.76044 13.4399 9.63867 12.2432L9.62598 12C9.62598 10.6891 10.6891 9.62598 12 9.62598C13.3109 9.62598 14.374 10.6891 14.374 12L14.3613 12.2432ZM19.9873 12.2432C19.8655 13.4398 18.8548 14.374 17.626 14.374C16.3973 14.3738 15.3864 13.4397 15.2646 12.2432L15.2529 12C15.2529 10.6892 16.3152 9.62619 17.626 9.62598C18.9369 9.62598 20 10.6891 20 12L19.9873 12.2432ZM8.73535 6.61621C8.61388 7.81306 7.60288 8.74687 6.37402 8.74707C5.14502 8.74707 4.13422 7.81315 4.0127 6.61621L4 6.37402C4 5.06311 5.06311 4 6.37402 4L6.61621 4.0127C7.81315 4.13422 8.74707 5.14502 8.74707 6.37402L8.73535 6.61621ZM14.3613 6.61621C14.2398 7.81317 13.229 8.74707 12 8.74707C10.771 8.74707 9.76018 7.81317 9.63867 6.61621L9.62598 6.37402C9.62598 5.06311 10.6891 4 12 4L12.2432 4.0127C13.4398 4.13449 14.374 5.14521 14.374 6.37402L14.3613 6.61621ZM19.9873 6.61621C19.8658 7.81315 18.855 8.74707 17.626 8.74707C16.3971 8.74687 15.3861 7.81306 15.2646 6.61621L15.2529 6.37402C15.2529 5.06324 16.3152 4.00021 17.626 4C18.9369 4 20 5.06311 20 6.37402L19.9873 6.61621Z" fill="#3D3B3B"/>
</svg>
