<svg width="24" height="24" viewBox="0 0 24 24" fill="none" xmlns="http://www.w3.org/2000/svg">
<path d="M18.4834 4C18.9115 4.0001 19.2751 4.14285 19.5654 4.42969C19.8556 4.71665 20 5.07593 20 5.5V14.8428C19.9999 15.2668 19.8556 15.6261 19.5654 15.9131C19.2751 16.2 18.9116 16.3437 18.4834 16.3438H6.84082L4 19.1504V5.5C4.00002 5.07593 4.1444 4.71665 4.43457 4.42969C4.72488 4.14285 5.08847 4.0001 5.5166 4H18.4834ZM5.5166 5.06445C5.41198 5.06457 5.3121 5.10705 5.21484 5.20312C5.1174 5.29942 5.07521 5.39763 5.0752 5.5V16.5664L6.35547 15.3066L6.38477 15.2783H18.4834C18.588 15.2782 18.688 15.2356 18.7852 15.1396C18.8824 15.0435 18.9247 14.945 18.9248 14.8428V5.5C18.9248 5.39763 18.8826 5.29942 18.7852 5.20312C18.6879 5.10705 18.588 5.06457 18.4834 5.06445H5.5166ZM13.416 13.3066H7.07227V12.2412H13.416V13.3066ZM16.9277 10.7041H7.07227V9.63867H16.9277V10.7041ZM16.9277 8.10156H7.07227V7.03613H16.9277V8.10156Z" fill="#3D3B3B"/>
</svg>
